<svg width="25" height="33" viewBox="0 0 25 33" fill="none" xmlns="http://www.w3.org/2000/svg">
<path d="M6.76541 0.5H10.2369V1.95161H8.21702V3.40321H10.2369V4.85482H6.76541V0.5ZM10.9304 0.5H14.4032V1.76309H12.3833V2.0149H14.4032V4.91811H10.9304V3.59308H12.9502V3.33993H10.9304V0.5ZM15.098 0.5H18.5681V1.76309H16.5483V2.0149H18.5681V4.91811H15.098V3.59308H17.1179V3.33993H15.098V0.5Z" fill="#EDF8FF"/>
<path fill-rule="evenodd" clip-rule="evenodd" d="M12.6547 32.5L3.30404 29.9038L0.547607 6.534H24.7859L22.0309 29.9011L12.6547 32.5ZM5.99719 17.1127L6.25439 19.9782H16.1881L15.8555 23.6947L12.6587 24.5592H12.656L9.46462 23.6974L9.25994 21.4123H6.38231L6.78359 25.9126L12.6547 27.5419L18.5351 25.9126L19.2515 17.8816L19.3215 17.1127L19.8386 11.3103H5.48145L5.74269 14.1772H16.6984L16.4372 17.1127H5.99719Z" fill="#EDF8FF"/>
</svg>
