<svg width="24" height="17" viewBox="0 0 24 17" fill="none" xmlns="http://www.w3.org/2000/svg">
<path d="M22.9455 6.54742C22.8785 6.50279 22.3207 6.06764 21.1156 6.06764C20.8032 6.06764 20.4908 6.10112 20.1784 6.1569C19.9441 4.59484 18.6387 3.80265 18.5829 3.76918L18.2593 3.5795L18.0585 3.88075C17.7907 4.28243 17.5787 4.73989 17.4894 5.20851C17.2663 6.10112 17.4002 6.94909 17.8576 7.67434C17.3109 7.98675 16.4183 8.06485 16.2286 8.06485H1.53406C1.1547 8.06485 0.842285 8.37727 0.842285 8.76778C0.842285 10.0509 1.04312 11.334 1.48943 12.5391C1.99152 13.8668 2.75023 14.8487 3.72095 15.4512C4.81439 16.1206 6.61076 16.5 8.6526 16.5C9.53405 16.5 10.449 16.4219 11.3527 16.2545C12.6024 16.0314 13.8074 15.5962 14.912 14.9603C15.8268 14.4371 16.6457 13.7617 17.3332 12.963C18.5048 11.6576 19.1965 10.1736 19.6986 8.89052H19.9106C21.1826 8.89052 21.9748 8.37727 22.4099 7.94212C22.7 7.67434 22.912 7.35077 23.0682 6.97141L23.1575 6.70363L22.9455 6.54742ZM2.90644 7.65202H4.87018C4.95944 7.65202 5.0487 7.57392 5.0487 7.4735V5.7106C5.0487 5.62134 4.9706 5.53208 4.87018 5.53208H2.90644C2.80602 5.53208 2.72792 5.61018 2.72792 5.7106V7.4735C2.73908 7.57392 2.80602 7.65202 2.90644 7.65202ZM5.61774 7.65202H7.58147C7.67074 7.65202 7.76 7.57392 7.76 7.4735V5.7106C7.76 5.62134 7.68189 5.53208 7.58147 5.53208H5.61774C5.51732 5.53208 5.43922 5.61018 5.43922 5.7106V7.4735C5.45037 7.57392 5.51732 7.65202 5.61774 7.65202ZM8.37366 7.65202H10.3262C10.4378 7.65202 10.5159 7.57392 10.5159 7.4735V5.7106C10.5159 5.62134 10.449 5.53208 10.3262 5.53208H8.37366C8.2844 5.53208 8.2063 5.61018 8.2063 5.7106V7.4735C8.2063 7.57392 8.27325 7.65202 8.37366 7.65202ZM11.0961 7.65202H13.071C13.1603 7.65202 13.2384 7.57392 13.2384 7.4735V5.7106C13.2384 5.62134 13.1714 5.53208 13.071 5.53208H11.0961C11.0069 5.53208 10.9288 5.61018 10.9288 5.7106V7.4735C10.9288 7.57392 11.0069 7.65202 11.0961 7.65202ZM5.61774 5.15272H7.58147C7.67074 5.15272 7.76 5.0523 7.76 4.95188V3.20014C7.76 3.09972 7.68189 3.02162 7.58147 3.02162H5.61774C5.51732 3.02162 5.43922 3.08856 5.43922 3.20014V4.95188C5.45037 5.0523 5.51732 5.15272 5.61774 5.15272ZM8.37366 5.15272H10.3262C10.4378 5.15272 10.5159 5.0523 10.5159 4.95188V3.20014C10.5159 3.09972 10.449 3.02162 10.3262 3.02162H8.37366C8.2844 3.02162 8.2063 3.08856 8.2063 3.20014V4.95188C8.2063 5.0523 8.27325 5.15272 8.37366 5.15272ZM11.0961 5.15272H13.071C13.1603 5.15272 13.2384 5.0523 13.2384 4.95188V3.20014C13.2384 3.09972 13.1603 3.02162 13.071 3.02162H11.0961C11.0069 3.02162 10.9288 3.08856 10.9288 3.20014V4.95188C10.9288 5.0523 11.0069 5.15272 11.0961 5.15272ZM11.0961 2.60879H13.071C13.1603 2.60879 13.2384 2.53068 13.2384 2.43026V0.689679C13.2384 0.578103 13.1603 0.5 13.071 0.5H11.0961C11.0069 0.5 10.9288 0.566946 10.9288 0.689679V2.43026C10.9288 2.51953 11.0069 2.60879 11.0961 2.60879ZM13.8409 7.65202H15.8046C15.905 7.65202 15.9831 7.57392 15.9831 7.4735V5.7106C15.9831 5.62134 15.905 5.53208 15.8046 5.53208H13.8409C13.7516 5.53208 13.6735 5.61018 13.6735 5.7106V7.4735C13.6735 7.57392 13.7516 7.65202 13.8409 7.65202Z" fill="#EDF8FF"/>
</svg>
