<svg width="27" height="27" viewBox="0 0 27 27" fill="none" xmlns="http://www.w3.org/2000/svg">
<path d="M1.43758 11.6656L8.95722 4.13297L11.1559 6.34463C10.8436 7.45046 11.351 8.66037 12.3658 9.24581V16.4532C11.5852 16.8955 11.0648 17.7412 11.0648 18.7039C11.0648 19.394 11.3389 20.0558 11.8269 20.5438C12.3149 21.0317 12.9767 21.3059 13.6667 21.3059C14.3568 21.3059 15.0186 21.0317 15.5066 20.5438C15.9946 20.0558 16.2687 19.394 16.2687 18.7039C16.2687 17.7412 15.7483 16.8955 14.9677 16.4532V10.1305L17.6607 12.8495C17.5697 13.0447 17.5697 13.2658 17.5697 13.5C17.5697 14.1901 17.8438 14.8519 18.3318 15.3399C18.8197 15.8278 19.4815 16.102 20.1716 16.102C20.8617 16.102 21.5235 15.8278 22.0115 15.3399C22.4994 14.8519 22.7736 14.1901 22.7736 13.5C22.7736 12.8099 22.4994 12.1481 22.0115 11.6601C21.5235 11.1722 20.8617 10.898 20.1716 10.898C19.9375 10.898 19.7163 10.898 19.5211 10.9891L16.1776 7.64561C16.3392 7.04304 16.2765 6.40233 16.0014 5.84245C15.7262 5.28256 15.2572 4.84156 14.6815 4.60133C14.1221 4.39317 13.5367 4.34113 13.0163 4.48424L10.8046 2.28559L11.8324 1.27083C12.8471 0.243057 14.4864 0.243057 15.5011 1.27083L25.8959 11.6656C26.9237 12.6804 26.9237 14.3196 25.8959 15.3344L15.5011 25.7292C14.4864 26.7569 12.8471 26.7569 11.8324 25.7292L1.43758 15.3344C0.409805 14.3196 0.409805 12.6804 1.43758 11.6656Z" fill="#EDF8FF"/>
</svg>
