<svg width="27" height="25" viewBox="0 0 27 25" fill="none" xmlns="http://www.w3.org/2000/svg">
<path d="M13.3335 0C11.6512 0 9.98545 0.331349 8.43122 0.975129C6.877 1.61891 5.4648 2.56251 4.27525 3.75206C1.87285 6.15447 0.523193 9.41282 0.523193 12.8103C0.523193 18.4725 4.19976 23.2764 9.28546 24.9802C9.92598 25.0826 10.1309 24.6855 10.1309 24.3396V22.1747C6.58248 22.9433 5.82667 20.4581 5.82667 20.4581C5.2374 18.9721 4.40472 18.575 4.40472 18.575C3.23898 17.7807 4.4944 17.8064 4.4944 17.8064C5.77543 17.896 6.45438 19.1258 6.45438 19.1258C7.56888 21.073 9.45199 20.4965 10.1822 20.1891C10.2975 19.3564 10.6305 18.7928 10.9892 18.4725C8.14534 18.1522 5.16053 17.0506 5.16053 12.1698C5.16053 10.7479 5.64733 9.60775 6.48 8.69822C6.35189 8.37796 5.90353 7.04569 6.6081 5.31629C6.6081 5.31629 7.68417 4.97041 10.1309 6.62294C11.143 6.34112 12.2446 6.2002 13.3335 6.2002C14.4224 6.2002 15.5241 6.34112 16.5361 6.62294C18.9829 4.97041 20.059 5.31629 20.059 5.31629C20.7635 7.04569 20.3152 8.37796 20.1871 8.69822C21.0197 9.60775 21.5065 10.7479 21.5065 12.1698C21.5065 17.0634 18.5089 18.1394 15.6522 18.4597C16.1134 18.8568 16.5361 19.6382 16.5361 20.8296V24.3396C16.5361 24.6855 16.7411 25.0955 17.3944 24.9802C22.4801 23.2636 26.1439 18.4725 26.1439 12.8103C26.1439 11.1281 25.8125 9.46225 25.1687 7.90803C24.525 6.35381 23.5813 4.94161 22.3918 3.75206C21.2022 2.56251 19.7901 1.61891 18.2358 0.975129C16.6816 0.331349 15.0158 0 13.3335 0Z" fill="#EDF8FF"/>
</svg>
