<svg width="34" height="33" viewBox="0 0 34 33" fill="none" xmlns="http://www.w3.org/2000/svg">
<mask id="mask0_7_212" style="mask-type:luminance" maskUnits="userSpaceOnUse" x="0" y="0" width="34" height="33">
<path d="M0.5 0H33.5V33H0.5V0Z" fill="white"/>
</mask>
<g mask="url(#mask0_7_212)">
<path d="M7.48499 0H8.97274V1.46988H10.334V0H11.8217V4.4495H10.334V2.96038H8.97274V4.4495H7.48636L7.48499 0ZM13.777 1.47538H12.468V0H16.5751V1.47538H15.2647V4.4495H13.777V1.47538ZM17.2269 0H18.7779L19.7321 1.56338L20.685 0H22.236V4.4495H20.7551V2.244L19.7321 3.82663H19.706L18.6816 2.24538V4.4495H17.2269V0ZM22.9757 0H24.4649V2.97963H26.5549V4.45088H22.9757V0Z" fill="#EDF8FF"/>
<path fill-rule="evenodd" clip-rule="evenodd" d="M7.43825 30.349L4.625 6.48584H29.375L26.5604 30.3462L16.9862 33L7.43825 30.349ZM13.1266 17.2865L12.8599 14.289H24.0593L24.3205 11.363H9.663L10.4523 20.2138H20.5956L20.256 24.0088L16.9918 24.8916H16.989L13.7302 24.0116L13.5213 21.6782H10.5815L10.9913 26.2735L16.9862 27.9372L22.9909 26.2735L23.7224 18.073L23.7939 17.2878H13.1266V17.2865Z" fill="#EDF8FF"/>
</g>
</svg>
