<svg width="24" height="23" viewBox="0 0 24 23" fill="none" xmlns="http://www.w3.org/2000/svg">
<path d="M4.66659 0C3.64992 0 2.6749 0.403868 1.95601 1.12276C1.23712 1.84165 0.833252 2.81667 0.833252 3.83333V19.1667C0.833252 20.1833 1.23712 21.1584 1.95601 21.8772C2.6749 22.5961 3.64992 23 4.66659 23H19.9999C21.0166 23 21.9916 22.5961 22.7105 21.8772C23.4294 21.1584 23.8333 20.1833 23.8333 19.1667V3.83333C23.8333 2.81667 23.4294 1.84165 22.7105 1.12276C21.9916 0.403868 21.0166 0 19.9999 0H4.66659ZM14.0378 16.6814C14.9578 17.4225 15.8753 17.7867 16.7927 17.7777C17.3549 17.7777 17.7868 17.6755 18.0858 17.4685C18.2254 17.3779 18.339 17.2524 18.4154 17.1046C18.4918 16.9567 18.5284 16.7915 18.5215 16.6252C18.5234 16.4438 18.4854 16.2642 18.4104 16.0991C18.3353 15.9339 18.225 15.7873 18.0871 15.6694C17.7868 15.4074 17.2195 15.1455 16.3851 14.8823C15.3833 14.5922 14.609 14.2178 14.0659 13.7578C13.5318 13.2978 13.2609 12.6564 13.2507 11.8322C13.2507 11.0541 13.588 10.4037 14.2627 9.8785C14.9195 9.35461 15.7577 9.09139 16.7799 9.09139C18.2034 9.09139 19.347 9.43767 20.2082 10.1315L19.2243 11.6636C18.8701 11.388 18.4636 11.1872 18.0296 11.0732C17.6395 10.9428 17.232 10.8717 16.8208 10.8624C16.3353 10.8624 15.9455 10.9518 15.6542 11.1294C15.3641 11.3083 15.2198 11.5422 15.2198 11.8322C15.2198 12.1517 15.3974 12.4226 15.7526 12.6474C16.1104 12.8634 16.7186 13.1023 17.5798 13.3643C18.6199 13.6735 19.361 14.0862 19.8006 14.6012C20.2414 15.1161 20.4612 15.7729 20.4612 16.5689C20.4612 17.3842 20.1481 18.0869 19.5195 18.6773C18.901 19.2587 18.0015 19.5628 16.8208 19.5909C15.2747 19.5909 13.9816 19.1271 12.9415 18.1994L14.0378 16.6814ZM6.9717 17.4966C7.27197 17.6844 7.63231 17.7777 8.05397 17.7777C8.49481 17.7777 8.85897 17.6512 9.15031 17.3982C9.44036 17.1363 9.58603 16.6814 9.58603 16.0348V9.26006H11.4835V16.4003C11.4554 17.5056 11.1373 18.3029 10.5278 18.7897C10.1952 19.0725 9.80749 19.2831 9.38925 19.4082C9.00187 19.5262 8.59948 19.5877 8.19453 19.5909C7.49175 19.5909 6.8682 19.4695 6.32514 19.2254C5.74375 18.9635 5.25692 18.4997 4.86336 17.8339L6.18459 16.7517C6.42736 17.0801 6.69059 17.3279 6.9717 17.4966Z" fill="#EDF8FF"/>
</svg>
