<svg width="28" height="27" viewBox="0 0 28 27" fill="none" xmlns="http://www.w3.org/2000/svg">
<path d="M17.4028 8.75381C16.8569 9.11775 15.1281 10.1056 14.8682 10.3006C14.3612 10.7035 13.8933 10.6775 13.3864 10.2876C13.1264 10.0796 11.3977 9.09176 10.8517 8.74081C10.2278 8.33787 10.2668 7.83094 10.9557 7.54498C13.0874 6.64811 15.2191 6.7131 17.3378 7.58397C17.9747 7.85694 18.0007 8.36386 17.4028 8.75381ZM26.7874 18.2164C25.5786 15.4998 23.9278 13.0302 21.7961 10.8595C21.1371 10.175 20.6629 9.33407 20.4183 8.41585C20.2884 7.98692 20.1974 7.54498 20.1064 7.10304C19.8464 5.95921 19.7294 4.78938 19.1965 3.71054C18.2477 1.65683 16.5969 0.590987 14.2052 0.5C11.8526 0.564991 10.0978 1.55285 9.07099 3.61955C8.79803 4.17847 8.60306 4.76338 8.47308 5.3613C8.25211 6.34915 8.05714 7.37601 7.82317 8.37686C7.6282 9.22174 7.23826 9.94963 6.57535 10.5995C4.48265 12.6402 2.8059 14.9799 1.53208 17.5535C1.35011 17.9305 1.16813 18.3074 1.05115 18.6974C0.804187 19.5552 1.4281 20.1532 2.33797 19.9452C2.90988 19.8282 3.4818 19.7112 4.02772 19.5422C4.56064 19.3473 4.76861 19.4773 4.89859 19.9972C5.74347 22.7918 7.5892 24.7545 10.4098 25.8463C15.765 27.874 22.0171 24.9885 23.3689 19.8932C23.4599 19.5422 23.5899 19.4123 23.9798 19.5422C24.5777 19.7242 25.1887 19.8542 25.7996 19.9972C26.4365 20.1142 26.9044 19.7892 26.9954 19.1653C27.0344 18.8273 26.9174 18.5284 26.7874 18.2164Z" fill="#EDF8FF"/>
</svg>
