<svg width="33" height="33" viewBox="0 0 33 33" fill="none" xmlns="http://www.w3.org/2000/svg">
<path d="M19.5192 0.5C19.2877 0.5 19.0722 0.549527 18.8727 0.616456C19.2957 0.897557 19.5286 1.27236 19.6437 1.69535C19.6531 1.75291 19.6692 1.7944 19.6772 1.85196C19.6871 1.90137 19.6929 1.95151 19.6946 2.00188C19.7267 2.73141 19.5032 2.82377 19.3466 3.25479C19.1056 3.8103 19.1725 4.4073 19.4617 4.88785C19.4882 4.95229 19.5214 5.01376 19.5607 5.07124C19.2462 2.97235 20.997 2.65778 21.3196 2.00188C21.3451 1.42897 20.8725 1.04748 20.4991 0.78244C20.2056 0.598023 19.8659 0.500557 19.5192 0.501339V0.5ZM22.1576 0.972517C22.1255 1.16393 22.1495 1.11441 22.1415 1.21346C22.1335 1.28039 22.1335 1.36338 22.1255 1.42897C22.108 1.4959 22.092 1.56283 22.0666 1.62842C22.0505 1.69535 22.0264 1.76228 21.9996 1.82787L21.9099 2.01795C21.8832 2.05141 21.8684 2.08487 21.843 2.11834L21.7935 2.19196C21.754 2.24876 21.7125 2.30413 21.669 2.35794C21.6195 2.40881 21.578 2.46637 21.5191 2.50786V2.5159C21.4695 2.55739 21.42 2.60692 21.3611 2.64975C21.1871 2.78227 20.989 2.88133 20.8056 3.00581C20.7481 3.04597 20.6892 3.08078 20.6396 3.1303C20.5833 3.16991 20.5305 3.21424 20.4817 3.26282C20.4241 3.31235 20.3826 3.36188 20.3331 3.42077C20.2916 3.4703 20.2421 3.52786 20.2086 3.58676C20.1669 3.64281 20.1281 3.70088 20.0922 3.76077C20.0587 3.8277 20.0346 3.88526 20.0011 3.95085C19.9757 4.01778 19.9516 4.07534 19.9342 4.14227C19.9122 4.21063 19.893 4.27984 19.8766 4.34975C19.8686 4.38321 19.8686 4.42471 19.8606 4.45683C19.8512 4.4903 19.8512 4.52376 19.8432 4.55722C19.8432 4.62415 19.8351 4.69777 19.8351 4.7647C19.8351 4.81423 19.8351 4.86376 19.8432 4.91329C19.8432 4.98021 19.8512 5.04714 19.8686 5.12077C19.8766 5.18769 19.8927 5.25462 19.9088 5.32155C19.9355 5.38714 19.9516 5.45273 19.9757 5.51966C19.9931 5.55982 20.0172 5.60265 20.0346 5.63612L18.1258 4.89722C17.8032 4.8062 17.4873 4.72321 17.1633 4.64825L16.6413 4.52376C16.1433 4.42471 15.6374 4.34975 15.1314 4.30022C15.114 4.30022 15.106 4.29219 15.0899 4.29219C14.2349 4.20654 13.3741 4.19534 12.5171 4.25872C12.0112 4.29219 11.5052 4.35778 10.9992 4.44077C10.6232 4.50556 10.2495 4.58324 9.87881 4.67368L9.50535 4.77274C9.3822 4.82226 9.2644 4.87982 9.14928 4.93069L8.87488 5.05517C8.85881 5.06321 8.84275 5.06321 8.83472 5.07124C8.75039 5.11273 8.67677 5.1462 8.60181 5.18769C8.49403 5.23524 8.3886 5.28795 8.2859 5.34565C8.22834 5.36974 8.17078 5.4032 8.11992 5.42864C8.09615 5.44339 8.07157 5.4568 8.0463 5.46879C7.97134 5.51163 7.89638 5.55312 7.82945 5.59462C7.76114 5.63238 7.695 5.67394 7.63134 5.71911C7.57244 5.75927 7.51488 5.79273 7.46535 5.83423C7.45732 5.8436 7.44795 5.8436 7.43992 5.85163C7.39039 5.88509 7.33284 5.92659 7.28197 5.96808L7.26591 5.98415L7.14142 6.0832C7.12536 6.09257 7.10795 6.10863 7.09189 6.11667C7.0504 6.15013 7.0089 6.19163 6.9674 6.22375C6.95937 6.24115 6.94197 6.25052 6.93394 6.25722C6.88441 6.30808 6.83489 6.34958 6.78536 6.39911C6.77599 6.39911 6.77599 6.40714 6.76796 6.41517C6.71637 6.46026 6.66679 6.5076 6.61937 6.55706C6.61 6.56509 6.61 6.57312 6.60197 6.57312C6.5584 6.61577 6.51686 6.66043 6.47749 6.70698C6.46142 6.72304 6.43733 6.7391 6.41993 6.75517C6.37547 6.80776 6.3281 6.85781 6.27804 6.90509C6.27001 6.92115 6.25394 6.93052 6.24591 6.94524C6.17898 7.01217 6.12142 7.0791 6.05449 7.14603L6.0304 7.17013C5.89654 7.31201 5.75599 7.45257 5.60607 7.57705C5.45749 7.71091 5.29954 7.83406 5.14159 7.94248C4.82444 8.16902 4.48217 8.35812 4.12159 8.50602C3.94758 8.58098 3.76419 8.64791 3.58214 8.70547C3.23411 8.78043 2.87671 8.92098 2.57018 8.94642C2.50325 8.94642 2.42963 8.96248 2.3627 8.97051L2.15522 9.02004L1.95577 9.095C1.88884 9.12043 1.82325 9.1539 1.75766 9.18602C1.69877 9.22752 1.63318 9.26098 1.57428 9.30248C1.51522 9.34523 1.45971 9.39268 1.40829 9.44437C1.35074 9.48452 1.29184 9.54342 1.24231 9.59295C1.19278 9.65051 1.14326 9.70003 1.10176 9.75893C1.06026 9.82586 1.01074 9.88342 0.977273 9.95035C0.933672 10.0107 0.89474 10.0742 0.860817 10.1404C0.827352 10.2154 0.793888 10.2823 0.769793 10.3559C0.74436 10.4229 0.720266 10.4978 0.694833 10.5714C0.67877 10.6384 0.661369 10.7053 0.654676 10.7722C0.654676 10.7789 0.645306 10.7883 0.645306 10.7963C0.629243 10.8713 0.629243 10.9703 0.619873 11.0199C0.611841 11.0788 0.60381 11.127 0.60381 11.1859C0.60227 11.3302 0.636289 11.4727 0.702865 11.6008V11.6088C0.728297 11.6584 0.761762 11.7092 0.795226 11.7588C0.827352 11.8083 0.862155 11.8578 0.902312 11.9073C0.943808 11.9488 0.993336 11.9997 1.0442 12.0412C1.09257 12.0897 1.14496 12.1341 1.20082 12.1737C1.40026 12.3477 1.44979 12.4053 1.7068 12.5378C1.74829 12.5632 1.78979 12.5793 1.84065 12.6047C1.84869 12.6047 1.85672 12.6128 1.86475 12.6128C1.86475 12.6302 1.86475 12.6382 1.87278 12.6543C1.89216 12.7911 1.92812 12.925 1.97987 13.0532C2.00664 13.1027 2.0227 13.1522 2.0468 13.2017C2.05617 13.2192 2.0642 13.2352 2.07357 13.2432C2.10569 13.3102 2.13916 13.3677 2.17128 13.4266L2.29577 13.6006C2.33727 13.6502 2.38813 13.7077 2.43766 13.7586C2.48719 13.8081 2.53672 13.8496 2.59561 13.8991C2.59561 13.8991 2.60364 13.9072 2.61168 13.9072C2.6612 13.9487 2.71073 13.9902 2.7616 14.0236C2.81932 14.0641 2.8802 14.0999 2.94364 14.1307C3.0012 14.1642 3.06813 14.1976 3.13372 14.2231C3.18721 14.2472 3.24276 14.2665 3.2997 14.2806C3.30907 14.2887 3.31711 14.2887 3.33317 14.2967C3.36663 14.3061 3.40813 14.3141 3.44025 14.3221C3.41616 14.7706 3.40813 15.1922 3.47506 15.3421C3.54868 15.5081 3.91411 15.0021 4.2782 14.4212C4.23001 14.9941 4.19655 15.6661 4.2782 15.8655C4.37057 16.073 4.86718 15.4251 5.29954 14.7117C11.1826 13.3517 16.5503 17.4156 17.1138 23.1581C17.0067 22.2612 15.9024 21.7646 15.3964 21.8891C15.1474 22.5022 14.7245 23.2906 14.0445 23.7805C14.102 23.2317 14.0779 22.6695 13.9615 22.1207C13.7757 22.8846 13.4242 23.5984 12.9321 24.2115C12.145 24.2691 11.3566 23.8876 10.9416 23.3147C10.9082 23.2906 10.9001 23.2411 10.8747 23.2076C10.8506 23.15 10.8252 23.0912 10.8078 23.0336C10.7837 22.978 10.767 22.9195 10.7583 22.8596C10.7502 22.8007 10.7502 22.7431 10.7502 22.6762V22.5517C10.7601 22.4928 10.774 22.4347 10.7917 22.3777C10.8091 22.3201 10.8252 22.2626 10.8506 22.2037C10.8827 22.1461 10.9082 22.0872 10.9497 22.0297C11.0902 21.6308 11.0902 21.3068 10.8332 21.1168C10.7833 21.0842 10.7304 21.0564 10.6753 21.0338C10.6431 21.0257 10.6016 21.0097 10.5682 21.0003L10.5012 20.9762C10.4444 20.9578 10.3862 20.9439 10.3272 20.9347C10.2707 20.9182 10.2121 20.9096 10.1532 20.9093C10.093 20.8998 10.0321 20.8944 9.97117 20.8932C9.92968 20.8932 9.88818 20.9012 9.84668 20.9012C9.78465 20.9009 9.72289 20.9095 9.6633 20.9267C9.60574 20.9347 9.54818 20.9427 9.48928 20.9588C9.43008 20.9747 9.37195 20.9944 9.31527 21.0177C9.25771 21.0418 9.20818 21.0672 9.14928 21.0927C9.09976 21.1168 9.05023 21.1502 8.99133 21.1756C7.05843 22.4366 8.21228 25.3895 9.53078 26.2448C9.03283 26.3359 8.52685 26.4429 8.3863 26.5514L8.36889 26.5674C8.72629 26.7829 9.09976 26.9663 9.48928 27.1243C10.0207 27.2983 10.5842 27.4549 10.8332 27.5218V27.5299C11.5206 27.671 12.2236 27.7214 12.9241 27.6798C16.5998 27.4228 19.6116 24.6265 20.1591 20.9427L20.2086 21.1582C20.234 21.3082 20.2662 21.4661 20.2836 21.6227V21.6308C20.2996 21.7057 20.3077 21.7807 20.317 21.8476V21.8797C20.3251 21.9547 20.3331 22.0297 20.3331 22.0966C20.3411 22.1876 20.3492 22.2786 20.3492 22.3697V22.5035C20.3492 22.5437 20.3585 22.5932 20.3585 22.6347C20.3585 22.6856 20.3492 22.7351 20.3492 22.7846V22.9011C20.3492 22.9586 20.3411 23.0082 20.3411 23.0671C20.3411 23.1005 20.3411 23.134 20.3331 23.1741C20.3331 23.233 20.3251 23.2906 20.3251 23.3575C20.317 23.3816 20.317 23.4071 20.317 23.4311L20.2903 23.6226C20.2903 23.648 20.2903 23.6721 20.2836 23.6975C20.2742 23.7805 20.2581 23.8555 20.2501 23.9385V23.9545L20.2006 24.1874V24.2115L20.151 24.4351C20.151 24.4444 20.1417 24.4618 20.1417 24.4685C20.1264 24.5445 20.1072 24.6195 20.0841 24.6934V24.7175C20.0587 24.8005 20.0346 24.8755 20.0172 24.9504C20.0092 24.9585 20.0092 24.9665 20.0092 24.9665L19.9342 25.2155C19.9021 25.2985 19.8766 25.3734 19.8432 25.4564C19.8097 25.5394 19.7856 25.6224 19.7522 25.6974C19.7187 25.7803 19.6852 25.854 19.6531 25.9383H19.6437C19.6116 26.0119 19.5768 26.0949 19.5366 26.1699C19.5297 26.1897 19.5212 26.2089 19.5112 26.2274C19.5032 26.2355 19.5032 26.2448 19.4951 26.2529C18.9464 27.3514 18.1478 28.3059 17.1633 29.0398C17.0964 29.0813 17.0308 29.1321 16.9639 29.1817C16.9478 29.1977 16.9237 29.2058 16.9063 29.2218C16.847 29.2657 16.7863 29.3076 16.7243 29.3477L16.7484 29.3972H16.7578L17.1058 29.3477H17.1138C17.3293 29.3142 17.5448 29.2727 17.7604 29.2312C17.8192 29.2232 17.8848 29.2058 17.9437 29.1897L18.0602 29.1643C18.1178 29.1562 18.1753 29.1402 18.2342 29.1321C18.2837 29.1147 18.3333 29.1054 18.3828 29.0906C19.2127 28.8899 20.0172 28.6168 20.7895 28.2942C19.4561 30.1104 17.6827 31.5577 15.636 32.5C16.5918 32.4331 17.5448 32.2765 18.4658 32.0101C21.7991 31.03 24.6144 28.7805 26.3058 25.7455C25.9642 27.6667 25.2022 29.4887 24.0744 31.0811C24.8785 30.5507 25.6215 29.933 26.2898 29.2392C28.1468 27.3004 29.366 24.8397 29.7834 22.1876C30.0646 23.4994 30.1475 24.8514 30.0244 26.1859C36.0132 17.8319 30.521 9.16996 28.2227 6.88902C28.2146 6.87162 28.2066 6.86359 28.2066 6.84753C28.1986 6.85556 28.1986 6.85556 28.1986 6.86359C28.1986 6.85556 28.1986 6.85556 28.1892 6.84753C28.1892 6.94658 28.1812 7.04564 28.1731 7.14603C28.1501 7.33187 28.1225 7.5171 28.0901 7.70154C28.05 7.88359 27.9991 8.06697 27.9496 8.25036C27.8907 8.42437 27.8251 8.60642 27.7488 8.78043C27.673 8.95229 27.5904 9.12108 27.5012 9.28641C27.316 9.61164 27.1023 9.91983 26.8627 10.2074C26.7382 10.3559 26.6057 10.4885 26.4718 10.6223C26.3936 10.6938 26.3132 10.763 26.2309 10.8298L26.0408 10.9958C25.8927 11.1127 25.7376 11.2204 25.5763 11.3184C25.4177 11.4205 25.2542 11.5148 25.0864 11.6008C24.9124 11.6838 24.7384 11.7588 24.5643 11.8337C24.2099 11.9685 23.8432 12.0685 23.4694 12.1322C23.278 12.1657 23.0879 12.1818 22.9045 12.1992C22.7722 12.2085 22.6396 12.2139 22.5069 12.2152C22.3182 12.2126 22.1298 12.2014 21.9421 12.1818C21.7526 12.1669 21.5643 12.1392 21.3785 12.0988C21.1904 12.0646 21.0048 12.0177 20.823 11.9582H20.8136C20.997 11.9408 21.1791 11.9247 21.3625 11.8913C21.736 11.8265 22.1027 11.7266 22.4574 11.5928C22.6395 11.5259 22.8135 11.4429 22.9795 11.3599C23.1535 11.2769 23.3114 11.1859 23.4774 11.0868C23.6354 10.9797 23.792 10.8713 23.9419 10.7548C24.0918 10.6384 24.2324 10.5139 24.3649 10.3814C24.5054 10.2569 24.6299 10.1163 24.7544 9.97444C24.8789 9.82586 24.9954 9.67594 25.1024 9.52736C25.1198 9.50192 25.1372 9.46846 25.1533 9.44437C25.2363 9.31051 25.3193 9.17799 25.3943 9.04547C25.5772 8.71528 25.7269 8.36778 25.8413 8.00807C25.9002 7.83406 25.9417 7.65201 25.9832 7.46863C26.0167 7.27855 26.0502 7.0965 26.0662 6.91312C26.0823 6.72304 26.0997 6.53162 26.0997 6.34958C26.0997 6.21572 26.0903 6.0832 26.0823 5.95068C26.0657 5.76486 26.0434 5.5796 26.0154 5.39517C25.9831 5.20816 25.942 5.02279 25.8922 4.83966C25.8333 4.66565 25.7757 4.48226 25.7088 4.30825C25.6419 4.13423 25.5602 3.96022 25.4772 3.79424C25.3849 3.62825 25.2939 3.46227 25.1948 3.30432C25.0888 3.14924 24.9781 2.99747 24.8628 2.8492C24.7384 2.70731 24.6139 2.56542 24.4813 2.42487C24.4115 2.35366 24.3397 2.28447 24.2658 2.21739C23.891 1.92692 23.5028 1.65385 23.112 1.40488C23.0584 1.37391 23.0029 1.3462 22.946 1.32189C22.6999 1.17121 22.4347 1.05282 22.1576 0.972517Z" fill="#EDF8FF"/>
</svg>
