<svg width="34" height="33" viewBox="0 0 34 33" fill="none" xmlns="http://www.w3.org/2000/svg">
<path fill-rule="evenodd" clip-rule="evenodd" d="M0.501709 16.4977C0.501815 13.6508 1.23859 10.8524 2.64039 8.37458C4.04219 5.89674 6.06131 3.82379 8.50143 2.35731C10.9415 0.890824 13.7196 0.0807052 16.5655 0.00572442C19.4114 -0.0692563 22.2283 0.593453 24.7422 1.92941C27.2562 3.26537 29.3817 5.22912 30.912 7.62971C32.4423 10.0303 33.3254 12.786 33.4754 15.629C33.6255 18.4719 33.0373 21.3053 31.7681 23.8536C30.4989 26.4019 28.5919 28.5784 26.2325 30.1715L11.296 9.26045C11.1607 9.07079 10.9686 8.92901 10.7475 8.85555C10.5264 8.78209 10.2877 8.78074 10.0657 8.8517C9.84381 8.92265 9.65015 9.06225 9.51268 9.25037C9.3752 9.43848 9.30102 9.66539 9.30082 9.89838V26.3967H11.5006V13.33L24.3253 31.2846C21.8096 32.5312 19.0175 33.1151 16.2131 32.9812C13.4087 32.8473 10.6849 32 8.2995 30.5194C5.91407 29.0388 3.94594 26.9739 2.58139 24.5202C1.21685 22.0666 0.501036 19.3053 0.501709 16.4977ZM22.4995 21.9972V8.7985H24.6993V21.9972H22.4995Z" fill="#EDF8FF"/>
</svg>
