<svg width="30" height="33" viewBox="0 0 30 33" fill="none" xmlns="http://www.w3.org/2000/svg">
<path d="M15.3393 33C14.8966 33 14.4593 32.8845 14.0702 32.6604L10.0346 30.2706C9.43098 29.9338 9.72523 29.8141 9.9246 29.7454C10.7276 29.4649 10.8912 29.4016 11.7492 28.9135C11.84 28.8626 11.9582 28.8805 12.0503 28.9341L15.151 30.7753C15.209 30.8052 15.2733 30.8208 15.3386 30.8208C15.4039 30.8208 15.4683 30.8052 15.5263 30.7753L27.618 23.7944C27.6742 23.7606 27.7207 23.7128 27.7529 23.6557C27.7852 23.5986 27.8022 23.5341 27.8023 23.4685V9.51374C27.8024 9.44685 27.7853 9.38106 27.7525 9.32276C27.7198 9.26445 27.6725 9.21561 27.6153 9.18099L15.5291 2.20702C15.4725 2.17418 15.4082 2.15688 15.3428 2.15688C15.2773 2.15688 15.2131 2.17418 15.1565 2.20702L3.07026 9.18099C3.01249 9.21466 2.96448 9.2628 2.93097 9.32066C2.89746 9.37852 2.87959 9.44412 2.87914 9.51099V23.4644C2.87914 23.5978 2.95201 23.7257 3.06751 23.7889L6.37849 25.7015C8.17699 26.6008 9.27561 25.542 9.27561 24.4764V10.7045C9.27486 10.6583 9.28343 10.6124 9.3008 10.5696C9.31817 10.5268 9.34399 10.488 9.37672 10.4554C9.40945 10.4228 9.44841 10.3971 9.49128 10.3799C9.53415 10.3627 9.58005 10.3543 9.62623 10.3552H11.158C11.3491 10.3552 11.5058 10.5065 11.5058 10.7045V24.4819C11.5058 26.8799 10.1996 28.2563 7.92536 28.2563C7.22549 28.2563 6.67412 28.2563 5.13688 27.5L1.96477 25.6713C1.5792 25.4461 1.2593 25.1239 1.03688 24.7367C0.814473 24.3496 0.6973 23.9109 0.697021 23.4644V9.51099C0.697021 8.60349 1.18102 7.75512 1.96477 7.30825L14.0702 0.324653C14.46 0.111636 14.8972 0 15.3414 0C15.7856 0 16.2227 0.111636 16.6126 0.324653L28.7015 7.30962C29.4825 7.76199 29.9693 8.60624 29.9693 9.51374V23.4685C29.9683 23.9144 29.8507 24.3522 29.6284 24.7385C29.406 25.1249 29.0865 25.4465 28.7015 25.6713L16.6126 32.6549C16.2249 32.8778 15.7852 32.9945 15.338 32.9931V33H15.3393ZM19.0738 23.3847C13.7828 23.3847 12.6746 20.9564 12.6746 18.9187C12.6746 18.7262 12.83 18.5708 13.0238 18.5708H14.5858C14.7591 18.5708 14.9035 18.6959 14.931 18.8664C15.1675 20.4587 15.8701 21.2617 19.0697 21.2617C21.6175 21.2617 22.701 20.6856 22.701 19.3339C22.701 18.5557 22.3917 17.9782 18.4331 17.5904C15.1221 17.2632 13.0761 16.5345 13.0761 13.8862C13.0761 11.4456 15.1345 9.99361 18.5816 9.99361C22.4522 9.99361 24.3717 11.337 24.6137 14.2245C24.6178 14.2731 24.6119 14.322 24.5962 14.3681C24.5805 14.4143 24.5553 14.4567 24.5224 14.4927C24.4894 14.5286 24.4493 14.5573 24.4047 14.5769C24.36 14.5966 24.3118 14.6067 24.263 14.6067H22.6914C22.6123 14.6066 22.5355 14.5794 22.474 14.5296C22.4125 14.4798 22.3698 14.4105 22.3532 14.3331C21.975 12.6597 21.0607 12.1235 18.5761 12.1235C15.7944 12.1235 15.47 13.0928 15.47 13.8188C15.47 14.6988 15.8508 14.9573 19.6046 15.4537C23.3212 15.9473 25.0867 16.6431 25.0867 19.2556C25.0867 21.8887 22.888 23.3998 19.0573 23.3998L19.0738 23.3847Z" fill="#EDF8FF"/>
</svg>
