<svg width="30" height="29" viewBox="0 0 30 29" fill="none" xmlns="http://www.w3.org/2000/svg">
<path d="M21.0003 0C19.8399 0.00851548 18.6859 0.172553 17.5691 0.48773L17.49 0.511458C16.7865 0.39098 16.0748 0.324438 15.3611 0.312411C13.894 0.287365 12.6325 0.632731 11.6175 1.20878C10.6156 0.871324 8.53817 0.290002 6.34866 0.406002C4.82351 0.486412 3.15995 0.935915 1.92745 2.19874C0.697575 3.46157 0.0477069 5.41512 0.184799 8.07391C0.221708 8.80815 0.436573 10.0037 0.795121 11.5539C1.15103 13.1028 1.65458 14.9153 2.28072 16.5696C2.90686 18.2253 3.59364 19.7122 4.66665 20.7219C5.20183 21.2281 5.9387 21.6539 6.80739 21.6183C7.41771 21.5946 7.97003 21.3349 8.4459 20.9513C8.6779 21.2479 8.92572 21.3771 9.15113 21.497C9.43454 21.6473 9.71136 21.7501 9.99741 21.8187C10.7896 22.0214 11.6146 22.0622 12.4229 21.9386C12.7748 21.882 13.1452 21.7712 13.5143 21.613C13.5275 22.0111 13.5433 22.4013 13.5605 22.7968C13.6106 24.0491 13.6435 25.2051 14.0311 26.2188C14.093 26.3849 14.2631 27.2378 14.9367 27.9904C15.6089 28.7444 16.9271 29.2137 18.4272 28.9026C19.4857 28.6825 20.8329 28.2857 21.7267 27.0519C22.6098 25.8312 23.0093 24.0794 23.0884 21.24C23.1081 21.0871 23.1319 20.9566 23.1569 20.834L23.3678 20.8524H23.3915C24.5212 20.9025 25.7471 20.747 26.7714 20.2856C27.6783 19.877 28.3637 19.4657 28.8633 18.7341C28.9886 18.5535 29.1257 18.3347 29.1626 17.9564C29.1995 17.5807 28.978 16.9902 28.6076 16.7186C27.8655 16.1729 27.4002 16.3798 26.9006 16.4813C26.4089 16.5868 25.908 16.6448 25.4031 16.6566C26.8439 14.305 27.876 11.8057 28.4652 9.59379C28.8133 8.28878 29.0097 7.08527 29.0255 6.03336C29.0413 4.98144 28.953 4.04948 28.3031 3.24275C26.2718 0.725005 23.4153 0.0290001 21.206 0.00527269C21.1374 0.0039545 21.0689 0.00263641 21.0003 0.0039546V0ZM20.9423 0.773778C23.0317 0.754005 25.7023 1.32346 27.619 3.70016C28.05 4.23403 28.1779 5.01439 28.1634 5.97667C28.1476 6.93763 27.9643 8.0871 27.6295 9.34728C26.9796 11.7886 25.7511 14.6332 24.0203 17.1879C24.0819 17.2302 24.1483 17.2652 24.218 17.292C24.5792 17.437 25.4018 17.5609 27.0456 17.234C27.4582 17.1483 27.7613 17.0917 28.0751 17.3237C28.1503 17.3858 28.2101 17.4646 28.2496 17.5538C28.2892 17.6431 28.3075 17.7402 28.3031 17.8377C28.286 17.9851 28.23 18.1252 28.141 18.2437C27.8246 18.7064 27.1971 19.1454 26.3931 19.5066C25.6825 19.8282 24.6623 19.9956 23.758 20.0062C23.3045 20.0101 22.8867 19.9759 22.5321 19.8691L22.5083 19.8612C22.3713 21.1411 22.0562 23.6707 21.8519 24.8242C21.6871 25.7548 21.3997 26.4943 20.8501 27.0479C20.3017 27.6016 19.5266 27.9351 18.4826 28.1526C17.1895 28.4215 16.2469 28.1315 15.6393 27.6345C15.0329 27.1402 14.7548 26.4824 14.5873 26.0791C14.4727 25.8023 14.4133 25.4424 14.3553 24.9612C14.2917 24.3852 14.249 23.807 14.2275 23.2278C14.1895 22.212 14.1772 21.1953 14.1906 20.1789C13.6501 20.6587 12.9778 20.9777 12.2568 21.0976C11.4 21.2387 10.6328 21.1003 10.1754 20.9895C9.95108 20.9344 9.73422 20.8525 9.52945 20.7457C9.3159 20.6363 9.11422 20.5124 8.97976 20.2672C8.90054 20.1272 8.87523 19.9631 8.90858 19.8058C8.95165 19.6459 9.04731 19.5052 9.18013 19.4064C9.42795 19.2113 9.75354 19.1032 10.2452 19.003C11.1416 18.8251 11.454 18.7025 11.6438 18.5562C11.806 18.4309 11.9892 18.1778 12.3135 17.8048C12.3119 17.7886 12.3106 17.7723 12.3095 17.756C11.7313 17.7403 11.1643 17.5919 10.6525 17.3223C10.4667 17.5135 9.51231 18.4929 8.34835 19.8506C7.8593 20.4188 7.31884 20.7444 6.74807 20.7681C6.17729 20.7918 5.66188 20.5124 5.22424 20.1011C4.34764 19.2759 3.649 17.8562 3.04 16.252C2.43363 14.6464 1.93799 12.8589 1.58735 11.3364C1.23408 9.81392 1.0258 8.58669 0.996804 7.99482C0.864985 5.4784 1.47135 3.78321 2.51272 2.71415C3.55409 1.6451 4.98037 1.24042 6.37238 1.16264C8.86903 1.02292 11.2405 1.86788 11.7203 2.04979C12.6443 1.44078 13.8347 1.06114 15.3229 1.08487C16.0283 1.09452 16.7304 1.18294 17.4162 1.34851L17.4412 1.33796C17.7431 1.23514 18.0502 1.14814 18.3613 1.0796C19.2082 0.888072 20.0729 0.786448 20.941 0.776414L20.9423 0.773778ZM21.1308 1.58315H20.9502C20.237 1.59277 19.5264 1.67046 18.828 1.81515C20.2144 2.41889 21.4325 3.35193 22.3765 4.53326C22.9482 5.24012 23.4226 6.0204 23.787 6.85327C23.9241 7.17227 24.0164 7.4425 24.0678 7.65077C24.0941 7.75623 24.1126 7.84455 24.1179 7.93682C24.1229 7.99522 24.118 8.05406 24.1034 8.11082L24.0954 8.12664C24.1337 9.18515 23.8634 9.90224 23.8305 10.912C23.8054 11.6449 23.9979 12.5057 24.0454 13.4429C24.0902 14.3261 23.9808 15.295 23.3902 16.2467C23.4403 16.3047 23.4851 16.3627 23.5326 16.4207C25.0946 14.0348 26.2217 11.3931 26.8215 9.14297C27.1418 7.93023 27.3132 6.83218 27.3277 5.96217C27.3408 5.09217 27.1734 4.46075 26.9599 4.19843C25.2884 2.12492 23.0277 1.59765 21.1308 1.58315ZM15.166 1.89292C13.6936 1.89556 12.6364 2.32792 11.8363 2.97384C11.0098 3.64216 10.4561 4.55566 10.0923 5.4929C9.74013 6.42951 9.52481 7.412 9.45299 8.41005L9.47013 8.40082C9.91436 8.15828 10.4983 7.91705 11.1231 7.77732C11.7493 7.63759 12.4229 7.59409 13.0332 7.82346C13.6435 8.05414 14.1484 8.59328 14.3316 9.41319C15.2082 13.3493 14.0588 14.8125 13.6343 15.9158C13.4737 16.3159 13.3359 16.7247 13.2217 17.1404C13.2757 17.1272 13.3298 17.1141 13.3825 17.1088C13.6141 17.0963 13.8451 17.1416 14.0548 17.2406C14.4819 17.412 14.7745 17.7705 14.9327 18.1818C14.9736 18.2899 15.0039 18.4059 15.021 18.5245C15.0395 18.5746 15.0474 18.626 15.0461 18.6788C14.9988 20.1838 15.004 21.6901 15.0619 23.1949C15.0909 23.8461 15.1331 24.4182 15.1871 24.8703C15.2398 25.3211 15.3163 25.6638 15.3651 25.7798C15.5233 26.1674 15.7566 26.6736 16.1784 27.0176C16.6002 27.3604 17.2026 27.5897 18.306 27.3604C19.263 27.1613 19.8535 26.8858 20.249 26.4864C20.6418 26.0896 20.8777 25.5373 21.028 24.6897C21.2534 23.4203 21.7069 19.7412 21.7609 19.0478C21.7372 18.5272 21.8163 18.1251 21.9877 17.8193C22.1656 17.5056 22.4398 17.3131 22.6758 17.209C22.7944 17.1562 22.9051 17.122 22.9961 17.0969C22.8995 16.9626 22.7984 16.8315 22.6929 16.7041C22.353 16.3046 22.0737 15.8574 21.8638 15.3767C21.7635 15.1785 21.6567 14.9838 21.5434 14.7927C21.3787 14.5027 21.1691 14.1402 20.9502 13.7329C20.5113 12.9169 20.0341 11.9283 19.7863 10.9647C19.5398 10.0037 19.5029 9.00851 20.1356 8.30591C20.6972 7.68241 21.6805 7.42405 23.1582 7.56905C23.1147 7.4425 23.0884 7.33705 23.0145 7.16832C22.6793 6.40336 22.2435 5.68653 21.7188 5.0368C20.4665 3.48398 18.4404 1.94433 15.3084 1.89424L15.166 1.89292ZM6.89307 1.95488C6.73489 1.95488 6.5767 1.96015 6.41852 1.96806C5.16097 2.03792 3.97196 2.39251 3.12173 3.26779C2.26886 4.14175 1.70863 5.57594 1.8299 7.95132C1.85495 8.39951 2.05663 9.6597 2.40199 11.1545C2.74736 12.652 3.23773 14.4118 3.82564 15.9659C4.41355 17.5214 5.12801 18.8752 5.80556 19.5158C6.14697 19.8361 6.44357 19.9653 6.71248 19.9548C6.98271 19.9416 7.30698 19.7913 7.70507 19.3286C8.43009 18.4802 9.18184 17.6551 9.95918 16.8544C9.41018 16.3936 8.98741 15.8007 8.73063 15.1315C8.47718 14.4683 8.39997 13.7507 8.50653 13.0488C8.6344 12.155 8.65153 11.3193 8.63703 10.6602C8.62121 10.0169 8.57376 9.58983 8.57376 9.32224V9.28533C8.57257 7.8922 8.82218 6.51023 9.31063 5.20553C9.65863 4.30653 10.178 3.39302 10.957 2.65352C10.1925 2.40965 8.83476 2.03792 7.36498 1.96806C7.20693 1.95981 7.0487 1.95542 6.89043 1.95488H6.89307ZM22.3343 8.33755C21.4894 8.3481 21.0148 8.56033 20.7657 8.83715C20.4124 9.22997 20.3795 9.91806 20.5983 10.767C20.8158 11.6159 21.2666 12.5663 21.6911 13.3546C21.902 13.75 22.1076 14.106 22.2737 14.3933C22.4411 14.6833 22.5637 14.889 22.6375 15.0656C22.7061 15.2264 22.7825 15.3688 22.859 15.5019C23.1859 14.831 23.2452 14.1732 23.2109 13.4864C23.1674 12.6375 22.9644 11.7688 22.9948 10.8896C23.0277 9.86138 23.2373 9.19042 23.2558 8.39555C22.9501 8.35715 22.6424 8.33777 22.3343 8.33755ZM12.0788 8.47596C11.8206 8.47836 11.5634 8.50841 11.3116 8.5656C10.8111 8.68345 10.3281 8.86602 9.87481 9.10869C9.72322 9.18778 9.5769 9.28006 9.43981 9.3842L9.41345 9.40792C9.42136 9.58456 9.45695 10.013 9.47277 10.6417C9.48595 11.3312 9.47013 12.2104 9.33304 13.1595C9.03513 15.2264 10.58 16.9374 12.3965 16.9401C12.502 16.5156 12.6773 16.0859 12.8513 15.6324C13.3575 14.3103 14.3527 13.3467 13.5143 9.58324C13.3772 8.96765 13.1057 8.71851 12.7313 8.57746C12.5215 8.50552 12.3006 8.47116 12.0788 8.47596ZM21.9389 8.72246H22.0022C22.0839 8.7251 22.1603 8.73433 22.2263 8.74883C22.2869 8.76091 22.3449 8.78367 22.3976 8.81606C22.4215 8.83038 22.4421 8.84949 22.4582 8.87218C22.4743 8.89486 22.4855 8.92063 22.4912 8.94787V8.95842C22.4933 9.0162 22.4777 9.07324 22.4464 9.12187C22.4094 9.18821 22.3632 9.249 22.3093 9.30247C22.1818 9.43834 22.0132 9.52864 21.8295 9.55951C21.6495 9.58083 21.4678 9.53636 21.318 9.43429C21.2574 9.39489 21.2028 9.34694 21.1559 9.29192C21.1156 9.24945 21.0882 9.19643 21.0768 9.13901C21.074 9.11083 21.0773 9.08237 21.0864 9.05555C21.0955 9.02872 21.1102 9.00415 21.1295 8.98347C21.1709 8.93836 21.2206 8.90166 21.2758 8.87537C21.4841 8.77796 21.7104 8.72498 21.9402 8.71983L21.9389 8.72246ZM12.2001 8.92546C12.266 8.92546 12.3359 8.93206 12.4071 8.94128C12.5969 8.96765 12.7669 9.01642 12.8961 9.08892C12.9594 9.12187 13.0147 9.16406 13.0622 9.21678C13.0868 9.24488 13.1057 9.27759 13.1176 9.31301C13.1294 9.3482 13.1334 9.38552 13.1294 9.42242C13.1171 9.49222 13.0846 9.55686 13.0358 9.60829C12.9847 9.66958 12.9247 9.7229 12.8579 9.76647C12.6942 9.87807 12.4956 9.92632 12.299 9.90224C12.0993 9.87061 11.9157 9.77373 11.777 9.62674C11.7185 9.56828 11.6688 9.50168 11.6293 9.42901C11.5883 9.3658 11.5701 9.29043 11.5779 9.21547C11.5964 9.08365 11.7084 9.01774 11.8152 8.97819C11.9389 8.94021 12.0682 8.92415 12.1975 8.93074L12.2001 8.92546ZM23.4838 17.7995H23.4799C23.2966 17.8654 23.1464 17.8918 23.0185 17.9445C22.8913 17.9921 22.7858 18.0844 22.7219 18.2042C22.6428 18.3426 22.5769 18.5891 22.5967 19.0083C22.6534 19.046 22.7156 19.0744 22.7812 19.0927C22.9934 19.1559 23.3507 19.1981 23.7501 19.1915C24.5436 19.1823 25.5217 19.003 26.0411 18.7684C26.4669 18.5759 26.8623 18.3255 27.2156 18.0249C25.4795 18.3729 24.5001 18.2807 23.8977 18.0394C23.7487 17.9797 23.6093 17.8984 23.4838 17.7982V17.7995ZM13.4814 17.9129H13.455C13.3891 17.9182 13.2929 17.9392 13.1083 18.1396C12.6733 18.6115 12.5231 18.9068 12.1645 19.1836C11.8086 19.4604 11.3433 19.6068 10.4153 19.7913C10.1213 19.8493 9.95391 19.9139 9.84054 19.9653C9.87745 19.9943 9.8735 20.0022 9.92754 20.0299C10.0633 20.1024 10.2386 20.1657 10.3784 20.2013C10.7778 20.2975 11.4329 20.4109 12.1171 20.2975C12.7999 20.1841 13.5117 19.8664 14.1181 19.0413C14.2235 18.8989 14.2341 18.688 14.1484 18.4613C14.0601 18.2372 13.8702 18.0421 13.7358 17.9867C13.6553 17.9496 13.5694 17.9256 13.4814 17.9155V17.9129Z" fill="#EDF8FF"/>
</svg>
