<svg width="33" height="33" viewBox="0 0 33 33" fill="none" xmlns="http://www.w3.org/2000/svg">
<path d="M32.1666 24.8795L18.8404 1.50923C18.6748 1.22168 18.4182 0.976436 18.0976 0.799464C17.7771 0.622493 17.4046 0.520372 17.0195 0.503909C16.6337 0.482558 16.2482 0.548971 15.9049 0.695925C15.5616 0.842878 15.2737 1.06475 15.0725 1.3374L0.618876 20.6695C0.399103 20.9614 0.28465 21.299 0.288934 21.6427C0.293219 21.9864 0.416064 22.322 0.643069 22.6101L7.70947 31.6469C7.97681 31.9862 8.36979 32.2449 8.82979 32.3847C9.28979 32.5244 9.79215 32.5375 10.2619 32.4222L30.7689 27.4129C31.0776 27.3384 31.3634 27.2099 31.6069 27.0363C31.8504 26.8627 32.0459 26.648 32.1803 26.4066C32.3127 26.1664 32.3802 25.9053 32.378 25.6415C32.3758 25.3776 32.304 25.1173 32.1676 24.8787L32.1666 24.8795ZM29.1831 25.8818L11.7818 30.1311C11.2509 30.2615 10.7414 29.8815 10.8518 29.4391L17.0689 4.85625C17.1851 4.39633 17.9542 4.32346 18.1974 4.74911L29.7062 24.9315C29.757 25.0214 29.7837 25.1194 29.7843 25.2186C29.7849 25.3179 29.7594 25.4161 29.7096 25.5064C29.6598 25.5967 29.5868 25.6771 29.4958 25.7419C29.4047 25.8067 29.2977 25.8544 29.1822 25.8817L29.1831 25.8818Z" fill="#EDF8FF"/>
</svg>
