<svg width="29" height="25" viewBox="0 0 29 25" fill="none" xmlns="http://www.w3.org/2000/svg">
<path d="M14.6667 10.0434C16.0055 10.0434 17.0973 11.1352 17.0973 12.5C17.0973 13.7998 16.0055 14.9046 14.6667 14.9046C13.3279 14.9046 12.2361 13.7998 12.2361 12.5C12.2361 11.1352 13.3279 10.0434 14.6667 10.0434ZM8.64873 22.8982C9.46759 23.3921 11.2613 22.6383 13.3279 20.6886C12.652 19.9217 11.9892 19.0899 11.3653 18.219C10.3178 18.1188 9.27654 17.9626 8.2458 17.7511C7.58291 20.5326 7.82987 22.4433 8.64873 22.8982ZM9.57157 15.4375L9.19464 14.7746C9.05166 15.1515 8.90869 15.5285 8.8177 15.8924C9.16864 15.9704 9.55858 16.0354 9.96151 16.1004L9.57157 15.4375ZM18.0721 14.4497L19.1249 12.5L18.0721 10.5503C17.6822 9.86145 17.2663 9.25056 16.8893 8.63966C16.1874 8.60067 15.4466 8.60067 14.6667 8.60067C13.8868 8.60067 13.146 8.60067 12.4441 8.63966C12.0671 9.25056 11.6512 9.86145 11.2613 10.5503L10.2085 12.5L11.2613 14.4497C11.6512 15.1385 12.0671 15.7494 12.4441 16.3603C13.146 16.3993 13.8868 16.3993 14.6667 16.3993C15.4466 16.3993 16.1874 16.3993 16.8893 16.3603C17.2663 15.7494 17.6822 15.1385 18.0721 14.4497ZM14.6667 5.71516C14.4197 6.00111 14.1598 6.30006 13.8998 6.651H15.4336C15.1736 6.30006 14.9137 6.00111 14.6667 5.71516ZM14.6667 19.2848C14.9137 18.9989 15.1736 18.6999 15.4336 18.349H13.8998C14.1598 18.6999 14.4197 18.9989 14.6667 19.2848ZM20.6717 2.10178C19.8658 1.60787 18.0721 2.36174 16.0055 4.3114C16.6814 5.07827 17.3442 5.91013 17.9681 6.78098C19.034 6.88496 20.0868 7.04094 21.0876 7.2489C21.7505 4.46738 21.5035 2.5567 20.6717 2.10178ZM19.7618 9.5625L20.1388 10.2254C20.2817 9.84845 20.4247 9.47152 20.5157 9.10758C20.1648 9.0296 19.7748 8.96461 19.3719 8.89962L19.7618 9.5625ZM21.6465 0.399074C23.5572 1.49089 23.7651 4.36339 22.9593 7.71682C26.2607 8.69165 28.6393 10.3034 28.6393 12.5C28.6393 14.6966 26.2607 16.3083 22.9593 17.2832C23.7651 20.6366 23.5572 23.5091 21.6465 24.6009C19.7488 25.6927 17.1623 24.445 14.6667 22.0664C12.1711 24.445 9.58457 25.6927 7.6739 24.6009C5.77622 23.5091 5.56826 20.6366 6.37412 17.2832C3.07269 16.3083 0.694092 14.6966 0.694092 12.5C0.694092 10.3034 3.07269 8.69165 6.37412 7.71682C5.56826 4.36339 5.77622 1.49089 7.6739 0.399074C9.58457 -0.692738 12.1711 0.555048 14.6667 2.93364C17.1623 0.555048 19.7488 -0.692738 21.6465 0.399074ZM21.2696 12.5C21.7115 13.4748 22.1014 14.4497 22.4264 15.4375C25.1559 14.6186 26.6896 13.4488 26.6896 12.5C26.6896 11.5512 25.1559 10.3814 22.4264 9.5625C22.1014 10.5503 21.7115 11.5252 21.2696 12.5ZM8.06383 12.5C7.62191 11.5252 7.23197 10.5503 6.90703 9.5625C4.1775 10.3814 2.64376 11.5512 2.64376 12.5C2.64376 13.4488 4.1775 14.6186 6.90703 15.4375C7.23197 14.4497 7.62191 13.4748 8.06383 12.5ZM19.7618 15.4375L19.3719 16.1004C19.7748 16.0354 20.1648 15.9704 20.5157 15.8924C20.4247 15.5285 20.2817 15.1515 20.1388 14.7746L19.7618 15.4375ZM16.0055 20.6886C18.0721 22.6383 19.8658 23.3921 20.6717 22.8982C21.5035 22.4433 21.7505 20.5326 21.0876 17.7511C20.0868 17.9591 19.034 18.115 17.9681 18.219C17.3442 19.0899 16.6814 19.9217 16.0055 20.6886ZM9.57157 9.5625L9.96151 8.89962C9.55858 8.96461 9.16864 9.0296 8.8177 9.10758C8.90869 9.47152 9.05166 9.84845 9.19464 10.2254L9.57157 9.5625ZM13.3279 4.3114C11.2613 2.36174 9.46759 1.60787 8.64873 2.10178C7.82987 2.5567 7.58291 4.46738 8.2458 7.2489C9.27654 7.03742 10.3178 6.88122 11.3653 6.78098C11.9892 5.91013 12.652 5.07827 13.3279 4.3114Z" fill="#EDF8FF"/>
</svg>
