<svg width="29" height="33" viewBox="0 0 29 33" fill="none" xmlns="http://www.w3.org/2000/svg">
<path d="M12.0705 29.0473C10.861 29.3616 9.5842 29.2971 8.41253 28.8626C7.24086 28.4282 6.23075 27.6446 5.51859 26.6177C5.08122 26.0058 4.77043 25.3128 4.60444 24.5792C4.43845 23.8456 4.42062 23.0862 4.55197 22.3456C4.59676 22.1024 4.65832 21.8626 4.73622 21.6279L4.8806 21.1865L5.27522 21.4752C6.18441 22.1431 7.20092 22.6509 8.28096 22.9767L8.56696 23.0634L8.53946 23.3494C8.50513 23.7545 8.6152 24.1588 8.85021 24.4906C9.06451 24.8001 9.36864 25.0363 9.72151 25.1674C10.0744 25.2984 10.459 25.318 10.8233 25.2235C10.9901 25.1792 11.1492 25.1096 11.295 25.0172L18.9812 20.1195C19.1689 20.0009 19.3299 19.8446 19.454 19.6604C19.578 19.4762 19.6624 19.2683 19.7017 19.0497C19.7413 18.8265 19.736 18.5976 19.6862 18.3764C19.6364 18.1552 19.543 17.9461 19.4116 17.7614C19.1971 17.4521 18.893 17.2159 18.5402 17.0849C18.1873 16.9538 17.8028 16.9342 17.4384 17.0285C17.2716 17.0728 17.1126 17.1423 16.9668 17.2348L14.034 19.1047C13.5518 19.4117 13.0255 19.643 12.4733 19.7909C11.264 20.1053 9.98731 20.041 8.81565 19.6068C7.644 19.1725 6.6338 18.3892 5.92147 17.3626C5.48408 16.7505 5.17339 16.0571 5.00764 15.3233C4.84188 14.5894 4.8244 13.8298 4.95622 13.0891C5.08654 12.3633 5.36689 11.6727 5.77933 11.0613C6.19176 10.45 6.72722 9.93149 7.35147 9.5389L15.0363 4.63978C15.5185 4.33275 16.0448 4.10137 16.5969 3.95366C17.8064 3.6394 19.0832 3.70387 20.2549 4.13836C21.4265 4.57285 22.4367 5.35643 23.1488 6.38328C23.5862 6.99518 23.897 7.68825 24.063 8.42185C24.2289 9.15545 24.2468 9.91481 24.1154 10.6554C24.0705 10.8986 24.0089 11.1384 23.9312 11.3731L23.7868 11.8145L23.3936 11.5258C22.4841 10.8571 21.4671 10.3489 20.3864 10.0229L20.1004 9.93627L20.1279 9.65165C20.1624 9.24604 20.0523 8.84132 19.8172 8.50902C19.6027 8.1998 19.2985 7.96384 18.9456 7.83303C18.5928 7.70221 18.2083 7.68284 17.8441 7.77752C17.6773 7.82183 17.5182 7.89138 17.3724 7.98377L9.68621 12.8815C9.49837 13 9.33728 13.1563 9.21322 13.3405C9.08917 13.5246 9.00487 13.7327 8.96571 13.9513C8.92596 14.1745 8.93115 14.4035 8.98097 14.6247C9.03078 14.8459 9.12423 15.055 9.25584 15.2396C9.47027 15.549 9.77441 15.7851 10.1272 15.9161C10.4801 16.0472 10.8646 16.0668 11.229 15.9725C11.3963 15.9278 11.5558 15.8578 11.702 15.7649L14.6335 13.8949C15.1156 13.5882 15.6419 13.3573 16.1941 13.2101C17.4034 12.8957 18.6801 12.96 19.8517 13.3942C21.0234 13.8285 22.0336 14.6118 22.7459 15.6384C23.1833 16.2505 23.494 16.9439 23.6598 17.6777C23.8255 18.4116 23.843 19.1712 23.7112 19.9119C23.5809 20.6379 23.3005 21.3287 22.8881 21.9403C22.4757 22.5518 21.9402 23.0706 21.3159 23.4635L13.6311 28.3612C13.1489 28.6683 12.6226 28.8996 12.0705 29.0473ZM26.3127 4.36616C23.2492 -0.0200819 17.1964 -1.31945 12.8212 1.46904L5.13497 6.36678C4.09698 7.02004 3.20671 7.88268 2.52105 8.89957C1.8354 9.91645 1.36944 11.0652 1.15298 12.2724C0.786234 14.3063 1.1085 16.4043 2.06873 18.2344C1.41057 19.232 0.961523 20.3528 0.748728 21.5289C0.530038 22.7604 0.559446 24.0231 0.835224 25.2431C1.111 26.4631 1.6276 27.6158 2.35473 28.6335C5.41959 33.0197 11.471 34.3191 15.8462 31.532L23.5324 26.6342C24.5705 25.9811 25.4609 25.1185 26.1466 24.1016C26.8322 23.0847 27.2981 21.9359 27.5144 20.7286C27.8813 18.6949 27.5595 16.5969 26.6001 14.7666C27.2573 13.7688 27.7054 12.648 27.9173 11.4721C28.1365 10.2405 28.1075 8.97751 27.832 7.75725C27.5564 6.53699 27.0399 5.38407 26.3127 4.36616Z" fill="#EDF8FF"/>
</svg>
