<svg width="22" height="13" viewBox="0 0 22 13" fill="none" xmlns="http://www.w3.org/2000/svg">
<path d="M11.0001 0C8.10758 0 6.30925 1.44083 5.58341 4.33333C6.66675 2.8925 7.93425 2.35083 9.37508 2.70833C10.1984 2.91417 10.7942 3.51 11.4442 4.17083C12.5059 5.25417 13.7084 6.5 16.4167 6.5C19.3092 6.5 21.1076 5.05917 21.8334 2.16667C20.7501 3.6075 19.4826 4.14917 18.0417 3.79167C17.2184 3.58583 16.6334 2.99 15.9726 2.32917C14.9109 1.24583 13.7084 0 11.0001 0ZM5.58341 6.5C2.69091 6.5 0.892581 7.94083 0.166748 10.8333C1.25008 9.3925 2.51758 8.85083 3.95842 9.20833C4.78175 9.41417 5.36675 10.01 6.02758 10.6708C7.08925 11.7542 8.29175 13 11.0001 13C13.8926 13 15.6909 11.5592 16.4167 8.66667C15.3334 10.1075 14.0659 10.6492 12.6251 10.2917C11.8017 10.0858 11.2167 9.49 10.5559 8.82917C9.49425 7.74583 8.29175 6.5 5.58341 6.5Z" fill="#EDF8FF"/>
</svg>
