<svg width="24" height="23" viewBox="0 0 24 23" fill="none" xmlns="http://www.w3.org/2000/svg">
<path d="M21.2511 0H2.74889C2.15245 0 1.58043 0.236936 1.15868 0.658684C0.736936 1.08043 0.5 1.65245 0.5 2.24889V20.7511C0.5 21.3476 0.736936 21.9196 1.15868 22.3413C1.58043 22.7631 2.15245 23 2.74889 23H21.2511C21.5464 23 21.8389 22.9418 22.1117 22.8288C22.3846 22.7158 22.6325 22.5501 22.8413 22.3413C23.0501 22.1325 23.2158 21.8846 23.3288 21.6117C23.4418 21.3389 23.5 21.0464 23.5 20.7511V2.24889C23.5 1.95356 23.4418 1.66112 23.3288 1.38828C23.2158 1.11543 23.0501 0.867513 22.8413 0.658684C22.6325 0.449856 22.3846 0.284204 22.1117 0.171186C21.8389 0.0581691 21.5464 0 21.2511 0ZM13.84 12.7778H10.965V21.0067H8.67778V12.7778H5.80278V10.9122H13.84V12.7778ZM21.2511 19.5244C21.0661 19.9178 20.7681 20.247 20.395 20.47C20.0025 20.7116 19.5696 20.8804 19.1172 20.9683C18.6128 21.0725 18.0989 21.1239 17.5839 21.1217C17.0569 21.1212 16.5309 21.0742 16.0122 20.9811C15.5713 20.8908 15.1425 20.7493 14.7344 20.5594V18.3744L14.6578 18.2978H14.7344V18.3872C15.1188 18.6871 15.5507 18.9203 16.0122 19.0772C16.4731 19.2527 16.963 19.3394 17.4561 19.3328C17.7138 19.3373 17.9711 19.3115 18.2228 19.2561C18.4118 19.2119 18.5929 19.1386 18.7594 19.0389C18.8899 18.9594 18.9994 18.8499 19.0789 18.7194C19.1576 18.5709 19.1922 18.403 19.1786 18.2355C19.165 18.0679 19.1038 17.9078 19.0022 17.7739C18.8821 17.6055 18.7302 17.4622 18.555 17.3522C18.3423 17.2027 18.1155 17.0743 17.8778 16.9689L17.0217 16.6111C16.344 16.332 15.7435 15.8937 15.2711 15.3333C14.8758 14.8568 14.6669 14.2529 14.6833 13.6339C14.6684 13.1636 14.774 12.6974 14.99 12.2794C15.1961 11.9151 15.485 11.6044 15.8333 11.3722C16.2214 11.114 16.655 10.9319 17.1111 10.8356C17.6097 10.7208 18.1201 10.6651 18.6317 10.6694C19.0975 10.6629 19.5632 10.6928 20.0244 10.7589C20.4082 10.8189 20.7849 10.9173 21.1489 11.0528V13.1611C20.9807 13.0412 20.8009 12.9385 20.6122 12.8544C20.409 12.767 20.1998 12.6944 19.9861 12.6372C19.7813 12.5773 19.5719 12.5345 19.36 12.5094C19.1645 12.491 18.9677 12.491 18.7722 12.5094C18.5315 12.5055 18.2911 12.5312 18.0567 12.5861C17.8643 12.6264 17.6791 12.6954 17.5072 12.7906C17.373 12.8696 17.2593 12.979 17.175 13.11C17.0985 13.2373 17.0587 13.3832 17.06 13.5317C17.0569 13.6902 17.1014 13.846 17.1878 13.9789C17.2927 14.124 17.4225 14.2495 17.5711 14.3494C17.7513 14.4929 17.9487 14.6131 18.1589 14.7072L18.9639 15.065C19.334 15.218 19.6927 15.3974 20.0372 15.6017C20.3401 15.7675 20.6159 15.9786 20.855 16.2278C21.0892 16.4548 21.2722 16.7292 21.3917 17.0328C21.5142 17.3816 21.5747 17.7492 21.5706 18.1189C21.5614 18.5961 21.4526 19.0662 21.2511 19.4989V19.5244Z" fill="#EDF8FF"/>
</svg>
