<svg width="262" height="168" viewBox="0 0 262 168" fill="none" xmlns="http://www.w3.org/2000/svg">
<mask id="path-1-outside-1_134_180" maskUnits="userSpaceOnUse" x="0" y="0" width="262" height="168" fill="black">
<rect fill="white" width="262" height="168"/>
<path fill-rule="evenodd" clip-rule="evenodd" d="M24.4719 74.7038C24.1573 75.3781 24 76.1835 24 77.12V82.496C24 82.9664 24.0397 83.4037 24.1191 83.808C24.0397 84.2123 24 84.6496 24 85.12V90.496C24 91.4325 24.1573 92.2379 24.4719 92.9122C24.4847 92.9395 24.4977 92.9667 24.511 92.9936C24.588 93.1497 24.6736 93.2985 24.768 93.44C25.3653 94.208 26.3467 95.0187 27.712 95.872L81.472 130.432C81.8987 130.688 82.368 130.816 82.88 130.816C83.648 130.816 84.288 130.56 84.8 130.048C85.312 129.536 85.568 128.896 85.568 128.128V99.392C85.568 99.1888 85.5579 98.9906 85.5378 98.7974C85.525 98.6756 85.5083 98.5558 85.4876 98.438C85.3755 97.8015 85.1463 97.2235 84.8 96.704C84.7892 96.6845 84.7782 96.6651 84.7671 96.6458C84.6525 96.4462 84.5232 96.2555 84.3792 96.0735C83.9878 95.5787 83.4881 95.1488 82.88 94.784C82.112 94.272 81.6427 93.9733 81.472 93.888L65.4356 83.808L81.472 73.728C81.6427 73.6427 82.0267 73.3867 82.624 72.96C83.2367 72.5771 83.815 72.091 84.3589 71.5019C84.4211 71.4346 84.4828 71.366 84.544 71.296C84.6292 71.2002 84.7091 71.1003 84.7836 70.9965C85.098 70.5588 85.3179 70.0502 85.4432 69.4708C85.4751 69.3235 85.5009 69.1716 85.5205 69.0151C85.5522 68.7633 85.568 68.4996 85.568 68.224V39.488C85.568 38.72 85.312 38.08 84.8 37.568C84.288 37.056 83.648 36.8 82.88 36.8C82.368 36.8 81.8987 36.928 81.472 37.184L27.712 71.744C26.3467 72.5973 25.3653 73.408 24.768 74.176C24.6736 74.3175 24.588 74.4663 24.511 74.6224C24.4977 74.6493 24.4847 74.6765 24.4719 74.7038ZM23.4258 64.989C21.7278 66.0542 19.8689 67.4442 18.4532 69.2645L18.2737 69.4952L18.1116 69.7384C16.499 72.1573 16 74.8062 16 77.12V82.496C16 82.9231 16.017 83.3616 16.0549 83.808C16.017 84.2544 16 84.6929 16 85.12V90.496C16 92.8098 16.499 95.4587 18.1116 97.8776L18.2737 98.1208L18.4532 98.3515C19.8689 100.172 21.7276 101.562 23.4254 102.627L77.25 137.228L77.356 137.292C79.0633 138.316 80.9621 138.816 82.88 138.816C84.2546 138.816 85.6223 138.565 86.9103 138.051C86.7287 138.798 86.606 139.636 86.606 140.544C86.606 143.291 87.6068 146.01 89.7171 148.121C91.6501 150.054 94.3102 151.36 97.422 151.36H115.342C117.985 151.36 120.789 150.725 123.305 149.01C125.761 147.335 127.358 145.029 128.339 142.647L168.22 52.5238V68.224C168.22 70.381 168.678 72.6572 169.867 74.7971L170.024 75.0802L170.204 75.3496C171.301 76.9964 172.696 78.3905 174.342 79.4884L174.501 79.594L174.664 79.692C175.186 80.0052 175.782 80.362 176.267 80.632L181.32 83.808L176.257 86.9903C175.758 87.271 175.207 87.6151 174.796 87.872L174.587 88.0027L174.386 88.1461C173.152 89.0273 172.072 90.0811 171.137 91.1331L171.116 91.1564L171.095 91.18C168.783 93.8225 168.22 96.9647 168.22 99.392V128.128C168.22 130.875 169.221 133.595 171.331 135.705C173.442 137.815 176.161 138.816 178.908 138.816C180.826 138.816 182.725 138.316 184.432 137.292L184.538 137.228L238.363 102.627C240.004 101.597 241.959 100.144 243.382 98.1211C245.167 95.708 245.788 92.9746 245.788 90.496V85.12C245.788 84.6893 245.769 84.251 245.729 83.808C245.769 83.365 245.788 82.9267 245.788 82.496V77.12C245.788 74.6414 245.167 71.9081 243.382 69.4949C241.959 67.4719 240.004 66.0194 238.363 64.9894L184.538 30.3877L184.432 30.3241C182.725 29.2997 180.826 28.8 178.908 28.8C177.456 28.8 176.011 29.0798 174.66 29.6554C174.89 28.8239 175.054 27.867 175.054 26.816C175.054 23.861 173.863 21.1942 171.82 19.2346C169.86 17.191 167.193 16 164.238 16H145.934C142.994 16 140.012 16.8093 137.422 18.752L137.287 18.8534L137.156 18.9603C135.302 20.4771 133.765 22.4516 132.861 24.887L93.568 114.432V99.392C93.568 97.0669 92.9893 94.6922 91.6334 92.5395C90.4912 90.6007 88.9247 89.1206 87.1908 88.043C86.7587 87.755 86.146 87.3488 85.5803 87.0212L80.4684 83.808L85.5873 80.5904C86.176 80.2463 86.7485 79.8447 87.1097 79.5872C88.4228 78.7317 89.5625 77.706 90.5466 76.5846C92.8107 74.0224 93.568 70.9538 93.568 68.224V39.488C93.568 36.7411 92.5672 34.0215 90.4569 31.9111C88.3465 29.8008 85.6269 28.8 82.88 28.8C80.9622 28.8 79.0633 29.2997 77.356 30.3241L77.25 30.3877L23.4258 64.989ZM94.862 131.392C94.6913 131.819 94.606 132.203 94.606 132.544C94.606 133.312 94.862 133.952 95.374 134.464C95.7704 134.86 96.2043 135.125 96.6758 135.259L94.862 139.392C94.6913 139.819 94.606 140.203 94.606 140.544C94.606 141.312 94.862 141.952 95.374 142.464C95.9713 143.061 96.654 143.36 97.422 143.36H115.342C118.073 143.36 119.95 142.08 120.974 139.52L166.798 35.968C166.969 35.5413 167.054 35.1573 167.054 34.816C167.054 34.048 166.755 33.408 166.158 32.896C165.818 32.4994 165.422 32.2345 164.969 32.1012L166.798 27.968C166.969 27.5413 167.054 27.1573 167.054 26.816C167.054 26.048 166.755 25.408 166.158 24.896C165.646 24.2987 165.006 24 164.238 24H145.934C144.483 24 143.246 24.384 142.222 25.152C141.283 25.92 140.643 26.816 140.302 27.84L94.862 131.392ZM234.076 71.744L180.316 37.184C179.889 36.928 179.42 36.8 178.908 36.8C178.14 36.8 177.5 37.056 176.988 37.568C176.476 38.08 176.22 38.72 176.22 39.488V68.224C176.22 68.3695 176.224 68.5123 176.233 68.6526C176.241 68.7777 176.252 68.9007 176.266 69.0217C176.35 69.7202 176.548 70.3503 176.86 70.912C176.894 70.9627 176.928 71.0128 176.963 71.0623C177.094 71.2489 177.234 71.4276 177.381 71.5983C177.787 72.0697 178.253 72.4809 178.78 72.832C179.633 73.344 180.145 73.6427 180.316 73.728L196.352 83.808L180.316 93.888C180.145 93.9733 179.719 94.2293 179.036 94.656C178.53 95.0175 177.993 95.5014 177.426 96.1079C177.324 96.2173 177.22 96.3307 177.116 96.448C177.073 96.497 177.032 96.5476 176.992 96.5997C176.649 97.0483 176.421 97.6111 176.306 98.2881C176.281 98.437 176.261 98.5915 176.247 98.7515C176.229 98.956 176.22 99.1695 176.22 99.392V128.128C176.22 128.896 176.476 129.536 176.988 130.048C177.5 130.56 178.14 130.816 178.908 130.816C179.42 130.816 179.889 130.688 180.316 130.432L234.076 95.872C235.441 95.0187 236.38 94.208 236.892 93.44C237.019 93.2769 237.132 93.1042 237.232 92.9219C237.246 92.8965 237.26 92.8709 237.273 92.8452C237.616 92.1848 237.788 91.4017 237.788 90.496V85.12C237.788 84.6496 237.742 84.2123 237.649 83.808C237.742 83.4037 237.788 82.9664 237.788 82.496V77.12C237.788 76.2143 237.616 75.4313 237.273 74.7708C237.26 74.7451 237.246 74.7195 237.232 74.6941C237.132 74.5118 237.019 74.3391 236.892 74.176C236.38 73.408 235.441 72.5973 234.076 71.744Z"/>
</mask>
<path fill-rule="evenodd" clip-rule="evenodd" d="M24.4719 74.7038C24.1573 75.3781 24 76.1835 24 77.12V82.496C24 82.9664 24.0397 83.4037 24.1191 83.808C24.0397 84.2123 24 84.6496 24 85.12V90.496C24 91.4325 24.1573 92.2379 24.4719 92.9122C24.4847 92.9395 24.4977 92.9667 24.511 92.9936C24.588 93.1497 24.6736 93.2985 24.768 93.44C25.3653 94.208 26.3467 95.0187 27.712 95.872L81.472 130.432C81.8987 130.688 82.368 130.816 82.88 130.816C83.648 130.816 84.288 130.56 84.8 130.048C85.312 129.536 85.568 128.896 85.568 128.128V99.392C85.568 99.1888 85.5579 98.9906 85.5378 98.7974C85.525 98.6756 85.5083 98.5558 85.4876 98.438C85.3755 97.8015 85.1463 97.2235 84.8 96.704C84.7892 96.6845 84.7782 96.6651 84.7671 96.6458C84.6525 96.4462 84.5232 96.2555 84.3792 96.0735C83.9878 95.5787 83.4881 95.1488 82.88 94.784C82.112 94.272 81.6427 93.9733 81.472 93.888L65.4356 83.808L81.472 73.728C81.6427 73.6427 82.0267 73.3867 82.624 72.96C83.2367 72.5771 83.815 72.091 84.3589 71.5019C84.4211 71.4346 84.4828 71.366 84.544 71.296C84.6292 71.2002 84.7091 71.1003 84.7836 70.9965C85.098 70.5588 85.3179 70.0502 85.4432 69.4708C85.4751 69.3235 85.5009 69.1716 85.5205 69.0151C85.5522 68.7633 85.568 68.4996 85.568 68.224V39.488C85.568 38.72 85.312 38.08 84.8 37.568C84.288 37.056 83.648 36.8 82.88 36.8C82.368 36.8 81.8987 36.928 81.472 37.184L27.712 71.744C26.3467 72.5973 25.3653 73.408 24.768 74.176C24.6736 74.3175 24.588 74.4663 24.511 74.6224C24.4977 74.6493 24.4847 74.6765 24.4719 74.7038ZM23.4258 64.989C21.7278 66.0542 19.8689 67.4442 18.4532 69.2645L18.2737 69.4952L18.1116 69.7384C16.499 72.1573 16 74.8062 16 77.12V82.496C16 82.9231 16.017 83.3616 16.0549 83.808C16.017 84.2544 16 84.6929 16 85.12V90.496C16 92.8098 16.499 95.4587 18.1116 97.8776L18.2737 98.1208L18.4532 98.3515C19.8689 100.172 21.7276 101.562 23.4254 102.627L77.25 137.228L77.356 137.292C79.0633 138.316 80.9621 138.816 82.88 138.816C84.2546 138.816 85.6223 138.565 86.9103 138.051C86.7287 138.798 86.606 139.636 86.606 140.544C86.606 143.291 87.6068 146.01 89.7171 148.121C91.6501 150.054 94.3102 151.36 97.422 151.36H115.342C117.985 151.36 120.789 150.725 123.305 149.01C125.761 147.335 127.358 145.029 128.339 142.647L168.22 52.5238V68.224C168.22 70.381 168.678 72.6572 169.867 74.7971L170.024 75.0802L170.204 75.3496C171.301 76.9964 172.696 78.3905 174.342 79.4884L174.501 79.594L174.664 79.692C175.186 80.0052 175.782 80.362 176.267 80.632L181.32 83.808L176.257 86.9903C175.758 87.271 175.207 87.6151 174.796 87.872L174.587 88.0027L174.386 88.1461C173.152 89.0273 172.072 90.0811 171.137 91.1331L171.116 91.1564L171.095 91.18C168.783 93.8225 168.22 96.9647 168.22 99.392V128.128C168.22 130.875 169.221 133.595 171.331 135.705C173.442 137.815 176.161 138.816 178.908 138.816C180.826 138.816 182.725 138.316 184.432 137.292L184.538 137.228L238.363 102.627C240.004 101.597 241.959 100.144 243.382 98.1211C245.167 95.708 245.788 92.9746 245.788 90.496V85.12C245.788 84.6893 245.769 84.251 245.729 83.808C245.769 83.365 245.788 82.9267 245.788 82.496V77.12C245.788 74.6414 245.167 71.9081 243.382 69.4949C241.959 67.4719 240.004 66.0194 238.363 64.9894L184.538 30.3877L184.432 30.3241C182.725 29.2997 180.826 28.8 178.908 28.8C177.456 28.8 176.011 29.0798 174.66 29.6554C174.89 28.8239 175.054 27.867 175.054 26.816C175.054 23.861 173.863 21.1942 171.82 19.2346C169.86 17.191 167.193 16 164.238 16H145.934C142.994 16 140.012 16.8093 137.422 18.752L137.287 18.8534L137.156 18.9603C135.302 20.4771 133.765 22.4516 132.861 24.887L93.568 114.432V99.392C93.568 97.0669 92.9893 94.6922 91.6334 92.5395C90.4912 90.6007 88.9247 89.1206 87.1908 88.043C86.7587 87.755 86.146 87.3488 85.5803 87.0212L80.4684 83.808L85.5873 80.5904C86.176 80.2463 86.7485 79.8447 87.1097 79.5872C88.4228 78.7317 89.5625 77.706 90.5466 76.5846C92.8107 74.0224 93.568 70.9538 93.568 68.224V39.488C93.568 36.7411 92.5672 34.0215 90.4569 31.9111C88.3465 29.8008 85.6269 28.8 82.88 28.8C80.9622 28.8 79.0633 29.2997 77.356 30.3241L77.25 30.3877L23.4258 64.989ZM94.862 131.392C94.6913 131.819 94.606 132.203 94.606 132.544C94.606 133.312 94.862 133.952 95.374 134.464C95.7704 134.86 96.2043 135.125 96.6758 135.259L94.862 139.392C94.6913 139.819 94.606 140.203 94.606 140.544C94.606 141.312 94.862 141.952 95.374 142.464C95.9713 143.061 96.654 143.36 97.422 143.36H115.342C118.073 143.36 119.95 142.08 120.974 139.52L166.798 35.968C166.969 35.5413 167.054 35.1573 167.054 34.816C167.054 34.048 166.755 33.408 166.158 32.896C165.818 32.4994 165.422 32.2345 164.969 32.1012L166.798 27.968C166.969 27.5413 167.054 27.1573 167.054 26.816C167.054 26.048 166.755 25.408 166.158 24.896C165.646 24.2987 165.006 24 164.238 24H145.934C144.483 24 143.246 24.384 142.222 25.152C141.283 25.92 140.643 26.816 140.302 27.84L94.862 131.392ZM234.076 71.744L180.316 37.184C179.889 36.928 179.42 36.8 178.908 36.8C178.14 36.8 177.5 37.056 176.988 37.568C176.476 38.08 176.22 38.72 176.22 39.488V68.224C176.22 68.3695 176.224 68.5123 176.233 68.6526C176.241 68.7777 176.252 68.9007 176.266 69.0217C176.35 69.7202 176.548 70.3503 176.86 70.912C176.894 70.9627 176.928 71.0128 176.963 71.0623C177.094 71.2489 177.234 71.4276 177.381 71.5983C177.787 72.0697 178.253 72.4809 178.78 72.832C179.633 73.344 180.145 73.6427 180.316 73.728L196.352 83.808L180.316 93.888C180.145 93.9733 179.719 94.2293 179.036 94.656C178.53 95.0175 177.993 95.5014 177.426 96.1079C177.324 96.2173 177.22 96.3307 177.116 96.448C177.073 96.497 177.032 96.5476 176.992 96.5997C176.649 97.0483 176.421 97.6111 176.306 98.2881C176.281 98.437 176.261 98.5915 176.247 98.7515C176.229 98.956 176.22 99.1695 176.22 99.392V128.128C176.22 128.896 176.476 129.536 176.988 130.048C177.5 130.56 178.14 130.816 178.908 130.816C179.42 130.816 179.889 130.688 180.316 130.432L234.076 95.872C235.441 95.0187 236.38 94.208 236.892 93.44C237.019 93.2769 237.132 93.1042 237.232 92.9219C237.246 92.8965 237.26 92.8709 237.273 92.8452C237.616 92.1848 237.788 91.4017 237.788 90.496V85.12C237.788 84.6496 237.742 84.2123 237.649 83.808C237.742 83.4037 237.788 82.9664 237.788 82.496V77.12C237.788 76.2143 237.616 75.4313 237.273 74.7708C237.26 74.7451 237.246 74.7195 237.232 74.6941C237.132 74.5118 237.019 74.3391 236.892 74.176C236.38 73.408 235.441 72.5973 234.076 71.744Z" fill="black"/>
<path fill-rule="evenodd" clip-rule="evenodd" d="M24.4719 74.7038C24.1573 75.3781 24 76.1835 24 77.12V82.496C24 82.9664 24.0397 83.4037 24.1191 83.808C24.0397 84.2123 24 84.6496 24 85.12V90.496C24 91.4325 24.1573 92.2379 24.4719 92.9122C24.4847 92.9395 24.4977 92.9667 24.511 92.9936C24.588 93.1497 24.6736 93.2985 24.768 93.44C25.3653 94.208 26.3467 95.0187 27.712 95.872L81.472 130.432C81.8987 130.688 82.368 130.816 82.88 130.816C83.648 130.816 84.288 130.56 84.8 130.048C85.312 129.536 85.568 128.896 85.568 128.128V99.392C85.568 99.1888 85.5579 98.9906 85.5378 98.7974C85.525 98.6756 85.5083 98.5558 85.4876 98.438C85.3755 97.8015 85.1463 97.2235 84.8 96.704C84.7892 96.6845 84.7782 96.6651 84.7671 96.6458C84.6525 96.4462 84.5232 96.2555 84.3792 96.0735C83.9878 95.5787 83.4881 95.1488 82.88 94.784C82.112 94.272 81.6427 93.9733 81.472 93.888L65.4356 83.808L81.472 73.728C81.6427 73.6427 82.0267 73.3867 82.624 72.96C83.2367 72.5771 83.815 72.091 84.3589 71.5019C84.4211 71.4346 84.4828 71.366 84.544 71.296C84.6292 71.2002 84.7091 71.1003 84.7836 70.9965C85.098 70.5588 85.3179 70.0502 85.4432 69.4708C85.4751 69.3235 85.5009 69.1716 85.5205 69.0151C85.5522 68.7633 85.568 68.4996 85.568 68.224V39.488C85.568 38.72 85.312 38.08 84.8 37.568C84.288 37.056 83.648 36.8 82.88 36.8C82.368 36.8 81.8987 36.928 81.472 37.184L27.712 71.744C26.3467 72.5973 25.3653 73.408 24.768 74.176C24.6736 74.3175 24.588 74.4663 24.511 74.6224C24.4977 74.6493 24.4847 74.6765 24.4719 74.7038ZM23.4258 64.989C21.7278 66.0542 19.8689 67.4442 18.4532 69.2645L18.2737 69.4952L18.1116 69.7384C16.499 72.1573 16 74.8062 16 77.12V82.496C16 82.9231 16.017 83.3616 16.0549 83.808C16.017 84.2544 16 84.6929 16 85.12V90.496C16 92.8098 16.499 95.4587 18.1116 97.8776L18.2737 98.1208L18.4532 98.3515C19.8689 100.172 21.7276 101.562 23.4254 102.627L77.25 137.228L77.356 137.292C79.0633 138.316 80.9621 138.816 82.88 138.816C84.2546 138.816 85.6223 138.565 86.9103 138.051C86.7287 138.798 86.606 139.636 86.606 140.544C86.606 143.291 87.6068 146.01 89.7171 148.121C91.6501 150.054 94.3102 151.36 97.422 151.36H115.342C117.985 151.36 120.789 150.725 123.305 149.01C125.761 147.335 127.358 145.029 128.339 142.647L168.22 52.5238V68.224C168.22 70.381 168.678 72.6572 169.867 74.7971L170.024 75.0802L170.204 75.3496C171.301 76.9964 172.696 78.3905 174.342 79.4884L174.501 79.594L174.664 79.692C175.186 80.0052 175.782 80.362 176.267 80.632L181.32 83.808L176.257 86.9903C175.758 87.271 175.207 87.6151 174.796 87.872L174.587 88.0027L174.386 88.1461C173.152 89.0273 172.072 90.0811 171.137 91.1331L171.116 91.1564L171.095 91.18C168.783 93.8225 168.22 96.9647 168.22 99.392V128.128C168.22 130.875 169.221 133.595 171.331 135.705C173.442 137.815 176.161 138.816 178.908 138.816C180.826 138.816 182.725 138.316 184.432 137.292L184.538 137.228L238.363 102.627C240.004 101.597 241.959 100.144 243.382 98.1211C245.167 95.708 245.788 92.9746 245.788 90.496V85.12C245.788 84.6893 245.769 84.251 245.729 83.808C245.769 83.365 245.788 82.9267 245.788 82.496V77.12C245.788 74.6414 245.167 71.9081 243.382 69.4949C241.959 67.4719 240.004 66.0194 238.363 64.9894L184.538 30.3877L184.432 30.3241C182.725 29.2997 180.826 28.8 178.908 28.8C177.456 28.8 176.011 29.0798 174.66 29.6554C174.89 28.8239 175.054 27.867 175.054 26.816C175.054 23.861 173.863 21.1942 171.82 19.2346C169.86 17.191 167.193 16 164.238 16H145.934C142.994 16 140.012 16.8093 137.422 18.752L137.287 18.8534L137.156 18.9603C135.302 20.4771 133.765 22.4516 132.861 24.887L93.568 114.432V99.392C93.568 97.0669 92.9893 94.6922 91.6334 92.5395C90.4912 90.6007 88.9247 89.1206 87.1908 88.043C86.7587 87.755 86.146 87.3488 85.5803 87.0212L80.4684 83.808L85.5873 80.5904C86.176 80.2463 86.7485 79.8447 87.1097 79.5872C88.4228 78.7317 89.5625 77.706 90.5466 76.5846C92.8107 74.0224 93.568 70.9538 93.568 68.224V39.488C93.568 36.7411 92.5672 34.0215 90.4569 31.9111C88.3465 29.8008 85.6269 28.8 82.88 28.8C80.9622 28.8 79.0633 29.2997 77.356 30.3241L77.25 30.3877L23.4258 64.989ZM94.862 131.392C94.6913 131.819 94.606 132.203 94.606 132.544C94.606 133.312 94.862 133.952 95.374 134.464C95.7704 134.86 96.2043 135.125 96.6758 135.259L94.862 139.392C94.6913 139.819 94.606 140.203 94.606 140.544C94.606 141.312 94.862 141.952 95.374 142.464C95.9713 143.061 96.654 143.36 97.422 143.36H115.342C118.073 143.36 119.95 142.08 120.974 139.52L166.798 35.968C166.969 35.5413 167.054 35.1573 167.054 34.816C167.054 34.048 166.755 33.408 166.158 32.896C165.818 32.4994 165.422 32.2345 164.969 32.1012L166.798 27.968C166.969 27.5413 167.054 27.1573 167.054 26.816C167.054 26.048 166.755 25.408 166.158 24.896C165.646 24.2987 165.006 24 164.238 24H145.934C144.483 24 143.246 24.384 142.222 25.152C141.283 25.92 140.643 26.816 140.302 27.84L94.862 131.392ZM234.076 71.744L180.316 37.184C179.889 36.928 179.42 36.8 178.908 36.8C178.14 36.8 177.5 37.056 176.988 37.568C176.476 38.08 176.22 38.72 176.22 39.488V68.224C176.22 68.3695 176.224 68.5123 176.233 68.6526C176.241 68.7777 176.252 68.9007 176.266 69.0217C176.35 69.7202 176.548 70.3503 176.86 70.912C176.894 70.9627 176.928 71.0128 176.963 71.0623C177.094 71.2489 177.234 71.4276 177.381 71.5983C177.787 72.0697 178.253 72.4809 178.78 72.832C179.633 73.344 180.145 73.6427 180.316 73.728L196.352 83.808L180.316 93.888C180.145 93.9733 179.719 94.2293 179.036 94.656C178.53 95.0175 177.993 95.5014 177.426 96.1079C177.324 96.2173 177.22 96.3307 177.116 96.448C177.073 96.497 177.032 96.5476 176.992 96.5997C176.649 97.0483 176.421 97.6111 176.306 98.2881C176.281 98.437 176.261 98.5915 176.247 98.7515C176.229 98.956 176.22 99.1695 176.22 99.392V128.128C176.22 128.896 176.476 129.536 176.988 130.048C177.5 130.56 178.14 130.816 178.908 130.816C179.42 130.816 179.889 130.688 180.316 130.432L234.076 95.872C235.441 95.0187 236.38 94.208 236.892 93.44C237.019 93.2769 237.132 93.1042 237.232 92.9219C237.246 92.8965 237.26 92.8709 237.273 92.8452C237.616 92.1848 237.788 91.4017 237.788 90.496V85.12C237.788 84.6496 237.742 84.2123 237.649 83.808C237.742 83.4037 237.788 82.9664 237.788 82.496V77.12C237.788 76.2143 237.616 75.4313 237.273 74.7708C237.26 74.7451 237.246 74.7195 237.232 74.6941C237.132 74.5118 237.019 74.3391 236.892 74.176C236.38 73.408 235.441 72.5973 234.076 71.744Z" stroke="white" stroke-width="32" mask="url(#path-1-outside-1_134_180)"/>
<path d="M24 85.12C24 83.9253 24.256 82.944 24.768 82.176C25.3653 81.408 26.3467 80.5973 27.712 79.744L81.472 45.184C81.8987 44.928 82.368 44.8 82.88 44.8C83.648 44.8 84.288 45.056 84.8 45.568C85.312 46.08 85.568 46.72 85.568 47.488V68.224C85.568 69.504 85.2267 70.528 84.544 71.296C83.9467 71.9787 83.3067 72.5333 82.624 72.96C82.0267 73.3867 81.6427 73.6427 81.472 73.728L59.072 87.808L81.472 101.888C81.6427 101.973 82.112 102.272 82.88 102.784C83.7333 103.296 84.3733 103.936 84.8 104.704C85.312 105.472 85.568 106.368 85.568 107.392V128.128C85.568 128.896 85.312 129.536 84.8 130.048C84.288 130.56 83.648 130.816 82.88 130.816C82.368 130.816 81.8987 130.688 81.472 130.432L27.712 95.872C26.3467 95.0187 25.3653 94.208 24.768 93.44C24.256 92.672 24 91.6907 24 90.496V85.12Z" fill="black"/>
<path d="M140.302 35.84C140.643 34.816 141.283 33.92 142.222 33.152C143.246 32.384 144.483 32 145.934 32H164.238C165.006 32 165.646 32.2987 166.158 32.896C166.755 33.408 167.054 34.048 167.054 34.816C167.054 35.1573 166.969 35.5413 166.798 35.968L120.974 139.52C119.95 142.08 118.073 143.36 115.342 143.36H97.422C96.654 143.36 95.9713 143.061 95.374 142.464C94.862 141.952 94.606 141.312 94.606 140.544C94.606 140.203 94.6913 139.819 94.862 139.392L140.302 35.84Z" fill="black"/>
<path d="M237.788 90.496C237.788 91.6907 237.489 92.672 236.892 93.44C236.38 94.208 235.441 95.0187 234.076 95.872L180.316 130.432C179.889 130.688 179.42 130.816 178.908 130.816C178.14 130.816 177.5 130.56 176.988 130.048C176.476 129.536 176.22 128.896 176.22 128.128V107.392C176.22 106.112 176.519 105.131 177.116 104.448C177.799 103.68 178.439 103.083 179.036 102.656C179.719 102.229 180.145 101.973 180.316 101.888L202.716 87.808L180.316 73.728C180.145 73.6427 179.633 73.344 178.78 72.832C178.012 72.32 177.372 71.68 176.86 70.912C176.433 70.144 176.22 69.248 176.22 68.224V47.488C176.22 46.72 176.476 46.08 176.988 45.568C177.5 45.056 178.14 44.8 178.908 44.8C179.42 44.8 179.889 44.928 180.316 45.184L234.076 79.744C235.441 80.5973 236.38 81.408 236.892 82.176C237.489 82.944 237.788 83.9253 237.788 85.12V90.496Z" fill="black"/>
<path d="M24 77.12C24 75.9253 24.256 74.944 24.768 74.176C25.3653 73.408 26.3467 72.5973 27.712 71.744L81.472 37.184C81.8987 36.928 82.368 36.8 82.88 36.8C83.648 36.8 84.288 37.056 84.8 37.568C85.312 38.08 85.568 38.72 85.568 39.488V60.224C85.568 61.504 85.2267 62.528 84.544 63.296C83.9467 63.9787 83.3067 64.5333 82.624 64.96C82.0267 65.3867 81.6427 65.6427 81.472 65.728L59.072 79.808L81.472 93.888C81.6427 93.9733 82.112 94.272 82.88 94.784C83.7333 95.296 84.3733 95.936 84.8 96.704C85.312 97.472 85.568 98.368 85.568 99.392V120.128C85.568 120.896 85.312 121.536 84.8 122.048C84.288 122.56 83.648 122.816 82.88 122.816C82.368 122.816 81.8987 122.688 81.472 122.432L27.712 87.872C26.3467 87.0187 25.3653 86.208 24.768 85.44C24.256 84.672 24 83.6907 24 82.496V77.12Z" fill="#1DA0FF"/>
<path d="M140.302 27.84C140.643 26.816 141.283 25.92 142.222 25.152C143.246 24.384 144.483 24 145.934 24H164.238C165.006 24 165.646 24.2987 166.158 24.896C166.755 25.408 167.054 26.048 167.054 26.816C167.054 27.1573 166.969 27.5413 166.798 27.968L120.974 131.52C119.95 134.08 118.073 135.36 115.342 135.36H97.422C96.654 135.36 95.9713 135.061 95.374 134.464C94.862 133.952 94.606 133.312 94.606 132.544C94.606 132.203 94.6913 131.819 94.862 131.392L140.302 27.84Z" fill="#1DA0FF"/>
<path d="M237.788 82.496C237.788 83.6907 237.489 84.672 236.892 85.44C236.38 86.208 235.441 87.0187 234.076 87.872L180.316 122.432C179.889 122.688 179.42 122.816 178.908 122.816C178.14 122.816 177.5 122.56 176.988 122.048C176.476 121.536 176.22 120.896 176.22 120.128V99.392C176.22 98.112 176.519 97.1307 177.116 96.448C177.799 95.68 178.439 95.0827 179.036 94.656C179.719 94.2293 180.145 93.9733 180.316 93.888L202.716 79.808L180.316 65.728C180.145 65.6427 179.633 65.344 178.78 64.832C178.012 64.32 177.372 63.68 176.86 62.912C176.433 62.144 176.22 61.248 176.22 60.224V39.488C176.22 38.72 176.476 38.08 176.988 37.568C177.5 37.056 178.14 36.8 178.908 36.8C179.42 36.8 179.889 36.928 180.316 37.184L234.076 71.744C235.441 72.5973 236.38 73.408 236.892 74.176C237.489 74.944 237.788 75.9253 237.788 77.12V82.496Z" fill="#1DA0FF"/>
</svg>
